<?xml version="1.0" encoding="utf-8"?>
<!-- Generator: Adobe Illustrator 23.1.0, SVG Export Plug-In . SVG Version: 6.00 Build 0)  -->
<svg version="1.1" id="Layer_1" xmlns="http://www.w3.org/2000/svg" xmlns:xlink="http://www.w3.org/1999/xlink" x="0px" y="0px"
	 viewBox="0 0 32 32" style="enable-background:new 0 0 32 32;" xml:space="preserve">
<style type="text/css">
	.st0{fill:#F0FEFE;}
	.st1{opacity:0.45;}
	.st2{clip-path:url(#SVGID_2_);fill:#000D89;}
	.st3{fill:#71CB81;}
	.st4{fill:#686FB3;}
	.st5{fill:#8F6EB3;}
	.st6{fill:#9472BA;}
	.st7{fill:#55429C;}
	.st8{fill:#B169B2;}
	.st9{fill:#8F6EB4;}
	.st10{fill:#923D9A;}
	.st11{clip-path:url(#SVGID_4_);}
	.st12{clip-path:url(#SVGID_6_);fill:url(#SVGID_7_);}
	.st13{clip-path:url(#SVGID_9_);}
	.st14{clip-path:url(#SVGID_11_);fill:url(#SVGID_12_);}
	.st15{clip-path:url(#SVGID_14_);}
	.st16{clip-path:url(#SVGID_16_);fill:url(#SVGID_17_);}
	.st17{clip-path:url(#SVGID_19_);}
	.st18{clip-path:url(#SVGID_21_);fill:url(#SVGID_22_);}
	.st19{clip-path:url(#SVGID_24_);}
	.st20{clip-path:url(#SVGID_26_);fill:url(#SVGID_27_);}
	.st21{clip-path:url(#SVGID_29_);}
	.st22{clip-path:url(#SVGID_31_);fill:url(#SVGID_32_);}
	.st23{clip-path:url(#SVGID_34_);}
	.st24{clip-path:url(#SVGID_36_);fill:url(#SVGID_37_);}
	.st25{clip-path:url(#SVGID_39_);}
	.st26{clip-path:url(#SVGID_41_);fill:url(#SVGID_42_);}
	.st27{clip-path:url(#SVGID_44_);}
	.st28{clip-path:url(#SVGID_46_);fill:url(#SVGID_47_);}
	.st29{clip-path:url(#SVGID_49_);}
	.st30{clip-path:url(#SVGID_51_);fill:url(#SVGID_52_);}
	.st31{clip-path:url(#SVGID_54_);}
	.st32{clip-path:url(#SVGID_56_);fill:url(#SVGID_57_);}
	.st33{clip-path:url(#SVGID_59_);}
	.st34{clip-path:url(#SVGID_61_);fill:url(#SVGID_62_);}
	.st35{clip-path:url(#SVGID_64_);}
	.st36{clip-path:url(#SVGID_66_);fill:url(#SVGID_67_);}
	.st37{clip-path:url(#SVGID_69_);}
	.st38{clip-path:url(#SVGID_71_);fill:url(#SVGID_72_);}
	.st39{clip-path:url(#SVGID_74_);}
	.st40{clip-path:url(#SVGID_76_);fill:url(#SVGID_77_);}
	.st41{clip-path:url(#SVGID_79_);}
	.st42{clip-path:url(#SVGID_81_);fill:url(#SVGID_82_);}
	.st43{clip-path:url(#SVGID_84_);}
	.st44{clip-path:url(#SVGID_86_);fill:url(#SVGID_87_);}
	.st45{clip-path:url(#SVGID_89_);}
	.st46{clip-path:url(#SVGID_91_);fill:url(#SVGID_92_);}
	.st47{clip-path:url(#SVGID_94_);}
	.st48{clip-path:url(#SVGID_96_);fill:url(#SVGID_97_);}
	.st49{clip-path:url(#SVGID_99_);}
	.st50{clip-path:url(#SVGID_101_);fill:url(#SVGID_102_);}
	.st51{clip-path:url(#SVGID_104_);}
	.st52{clip-path:url(#SVGID_106_);fill:url(#SVGID_107_);}
	.st53{clip-path:url(#SVGID_109_);}
	.st54{clip-path:url(#SVGID_111_);fill:url(#SVGID_112_);}
	.st55{clip-path:url(#SVGID_114_);}
	.st56{clip-path:url(#SVGID_116_);fill:url(#SVGID_117_);}
	.st57{clip-path:url(#SVGID_119_);}
	.st58{clip-path:url(#SVGID_121_);fill:url(#SVGID_122_);}
	.st59{clip-path:url(#SVGID_124_);}
	.st60{clip-path:url(#SVGID_126_);fill:url(#SVGID_127_);}
	.st61{clip-path:url(#SVGID_129_);}
	.st62{clip-path:url(#SVGID_131_);fill:url(#SVGID_132_);}
	.st63{clip-path:url(#SVGID_134_);}
	.st64{clip-path:url(#SVGID_136_);fill:url(#SVGID_137_);}
	.st65{clip-path:url(#SVGID_139_);}
	.st66{clip-path:url(#SVGID_141_);fill:url(#SVGID_142_);}
	.st67{clip-path:url(#SVGID_144_);}
	.st68{clip-path:url(#SVGID_146_);fill:url(#SVGID_147_);}
	.st69{clip-path:url(#SVGID_149_);}
	.st70{clip-path:url(#SVGID_151_);fill:url(#SVGID_152_);}
	.st71{clip-path:url(#SVGID_154_);}
	.st72{clip-path:url(#SVGID_156_);fill:url(#SVGID_157_);}
	.st73{clip-path:url(#SVGID_159_);}
	.st74{clip-path:url(#SVGID_161_);fill:url(#SVGID_162_);}
	.st75{clip-path:url(#SVGID_164_);}
	.st76{clip-path:url(#SVGID_166_);fill:url(#SVGID_167_);}
	.st77{clip-path:url(#SVGID_169_);}
	.st78{clip-path:url(#SVGID_171_);fill:url(#SVGID_172_);}
	.st79{clip-path:url(#SVGID_174_);}
	.st80{clip-path:url(#SVGID_176_);fill:url(#SVGID_177_);}
	.st81{clip-path:url(#SVGID_179_);}
	.st82{clip-path:url(#SVGID_181_);fill:url(#SVGID_182_);}
	.st83{clip-path:url(#SVGID_184_);}
	.st84{clip-path:url(#SVGID_186_);fill:url(#SVGID_187_);}
	.st85{clip-path:url(#SVGID_189_);}
	.st86{clip-path:url(#SVGID_191_);fill:url(#SVGID_192_);}
	.st87{clip-path:url(#SVGID_194_);}
	.st88{clip-path:url(#SVGID_196_);fill:url(#SVGID_197_);}
	.st89{clip-path:url(#SVGID_199_);fill:url(#SVGID_200_);}
	.st90{fill:#8D4A84;}
	.st91{fill:#C5378B;}
	.st92{fill:#EE64A1;}
	.st93{fill:#66C6EB;}
	.st94{opacity:0.83;}
	.st95{clip-path:url(#SVGID_202_);fill:#72CB85;}
	.st96{clip-path:url(#SVGID_204_);fill:#72CB85;}
	.st97{clip-path:url(#SVGID_206_);fill:#72CB85;}
	.st98{clip-path:url(#SVGID_208_);fill:#72CB85;}
	.st99{clip-path:url(#SVGID_210_);fill:#72CB85;}
	.st100{clip-path:url(#SVGID_212_);fill:#72CB85;}
	.st101{clip-path:url(#SVGID_214_);fill:#72CB85;}
	.st102{clip-path:url(#SVGID_216_);fill:#72CB85;}
	.st103{clip-path:url(#SVGID_218_);fill:#72CB85;}
	.st104{clip-path:url(#SVGID_220_);fill:#72CB85;}
	.st105{clip-path:url(#SVGID_222_);fill:#72CB85;}
	.st106{clip-path:url(#SVGID_224_);fill:#72CB85;}
	.st107{clip-path:url(#SVGID_226_);fill:#72CB85;}
	.st108{clip-path:url(#SVGID_228_);fill:#72CB85;}
	.st109{clip-path:url(#SVGID_230_);fill:#72CB85;}
	.st110{clip-path:url(#SVGID_232_);fill:#72CB85;}
	.st111{clip-path:url(#SVGID_234_);fill:#72CB85;}
	.st112{clip-path:url(#SVGID_236_);fill:#72CB85;}
	.st113{clip-path:url(#SVGID_238_);fill:#72CB85;}
	.st114{clip-path:url(#SVGID_240_);fill:#72CB85;}
	.st115{clip-path:url(#SVGID_242_);fill:#72CB85;}
	.st116{clip-path:url(#SVGID_244_);fill:#72CB85;}
	.st117{clip-path:url(#SVGID_246_);fill:#72CB85;}
	.st118{clip-path:url(#SVGID_248_);fill:#72CB85;}
	.st119{clip-path:url(#SVGID_250_);fill:#72CB85;}
	.st120{fill:#49B97B;}
	.st121{clip-path:url(#SVGID_252_);fill:#000D89;}
	.st122{clip-path:url(#SVGID_254_);fill:#000D89;}
	.st123{clip-path:url(#SVGID_256_);fill:#000D89;}
	.st124{clip-path:url(#SVGID_258_);fill:#B169B2;}
	.st125{fill:#EE64A2;}
	.st126{clip-path:url(#SVGID_260_);fill:#000D89;}
	.st127{fill:#3F61AF;}
	.st128{fill:#E18B5D;}
	.st129{fill:#C47B60;}
	.st130{clip-path:url(#SVGID_262_);fill:#72CB85;}
	.st131{fill:#C97C40;}
	.st132{clip-path:url(#SVGID_264_);fill:#72CB85;}
	.st133{fill:#BD7841;}
	.st134{fill:#FAB262;}
	.st135{fill:#64C4E9;}
</style>
<g>
	<path class="st0" d="M25.1,20.57c0.02,0,0.04,0.01,0.07,0.01C25.14,20.58,25.12,20.57,25.1,20.57"/>
	<path class="st0" d="M25.25,20.6c0.02,0,0.04,0.01,0.07,0.02C25.29,20.61,25.27,20.6,25.25,20.6"/>
	<path class="st0" d="M25.4,20.63c0.02,0.01,0.04,0.01,0.07,0.02C25.44,20.64,25.42,20.64,25.4,20.63"/>
	<path class="st0" d="M25.54,20.67c0.02,0.01,0.04,0.01,0.07,0.02C25.59,20.69,25.57,20.68,25.54,20.67"/>
	<path class="st0" d="M25.69,20.72c0.02,0.01,0.04,0.02,0.06,0.02C25.73,20.74,25.71,20.73,25.69,20.72"/>
	<path class="st0" d="M24.12,20.54c0.02,0,0.03,0,0.05-0.01C24.16,20.54,24.14,20.54,24.12,20.54"/>
	<path class="st0" d="M24.33,20.53c0,0,0.01,0,0.01,0C24.34,20.53,24.33,20.53,24.33,20.53"/>
	<path class="st0" d="M24.49,20.52c0.02,0,0.04,0,0.05,0C24.52,20.52,24.5,20.52,24.49,20.52"/>
	<path class="st0" d="M24.64,20.52c0.02,0,0.04,0,0.06,0C24.68,20.53,24.66,20.53,24.64,20.52"/>
	<path class="st0" d="M24.95,20.55c0.02,0,0.04,0.01,0.07,0.01C24.99,20.55,24.97,20.55,24.95,20.55"/>
	<path class="st0" d="M25.83,20.78c0.02,0.01,0.04,0.02,0.06,0.03C25.87,20.79,25.85,20.78,25.83,20.78"/>
	<path class="st0" d="M24.8,20.53c0.02,0,0.04,0,0.07,0.01C24.84,20.54,24.82,20.53,24.8,20.53"/>
	<path class="st0" d="M26.99,21.61c0.02,0.02,0.03,0.04,0.05,0.06C27.02,21.65,27,21.63,26.99,21.61"/>
	<path class="st0" d="M27.14,21.8c0.01,0.02,0.02,0.03,0.04,0.05C27.16,21.84,27.15,21.82,27.14,21.8"/>
	<path class="st0" d="M27.41,22.24c0.01,0.02,0.02,0.04,0.03,0.07C27.43,22.28,27.42,22.26,27.41,22.24"/>
	<path class="st0" d="M25.97,20.84c0.02,0.01,0.04,0.02,0.06,0.03C26.01,20.86,25.99,20.85,25.97,20.84"/>
	<path class="st0" d="M27.3,22.04c0.01,0.01,0.01,0.03,0.02,0.04C27.31,22.06,27.31,22.05,27.3,22.04"/>
	<path class="st0" d="M26.83,21.44c0.02,0.02,0.03,0.03,0.05,0.05C26.86,21.48,26.85,21.46,26.83,21.44"/>
	<path class="st0" d="M26.24,20.98c0.02,0.01,0.04,0.02,0.06,0.03C26.27,21,26.25,20.99,26.24,20.98"/>
	<path class="st0" d="M26.1,20.91c0.02,0.01,0.04,0.02,0.06,0.03C26.14,20.93,26.12,20.92,26.1,20.91"/>
	<path class="st0" d="M26.5,21.16c0.01,0.01,0.03,0.02,0.04,0.03C26.53,21.18,26.51,21.17,26.5,21.16"/>
	<path class="st0" d="M26.37,21.06c0.02,0.01,0.03,0.02,0.05,0.03C26.4,21.09,26.38,21.08,26.37,21.06"/>
	<path class="st0" d="M22.06,21.27c0.02-0.01,0.04-0.02,0.06-0.04C22.1,21.24,22.08,21.25,22.06,21.27"/>
	<path class="st0" d="M23.11,14.17c-0.07,0-0.14-0.01-0.2-0.02C22.98,14.16,23.04,14.17,23.11,14.17"/>
	<path class="st0" d="M23.33,14.18c-0.06,0-0.11,0-0.17-0.01C23.22,14.18,23.27,14.18,23.33,14.18"/>
	<path class="st0" d="M25.05,13.82c-0.06,0.03-0.11,0.05-0.17,0.08C24.93,13.88,24.99,13.85,25.05,13.82"/>
	<path class="st0" d="M24.85,13.91c-0.05,0.02-0.1,0.04-0.15,0.06C24.74,13.95,24.8,13.93,24.85,13.91"/>
	<path class="st0" d="M27.5,22.45c0.01,0.02,0.02,0.05,0.03,0.07C27.52,22.49,27.51,22.47,27.5,22.45"/>
	<path class="st0" d="M24.03,14.13c-0.06,0.01-0.13,0.02-0.2,0.02C23.9,14.15,23.96,14.14,24.03,14.13"/>
	<path class="st0" d="M23.58,14.18c-0.07,0-0.13,0-0.2,0C23.44,14.18,23.51,14.18,23.58,14.18"/>
	<path class="st0" d="M22.21,21.18c0.02-0.01,0.04-0.02,0.06-0.04C22.26,21.15,22.23,21.16,22.21,21.18"/>
	<path class="st0" d="M24.22,14.1c-0.06,0.01-0.12,0.02-0.17,0.03C24.11,14.12,24.16,14.11,24.22,14.1"/>
	<path class="st0" d="M24.65,13.98c-0.06,0.02-0.12,0.04-0.18,0.06C24.52,14.02,24.59,14,24.65,13.98"/>
	<path class="st0" d="M23.95,20.56c0.02,0,0.04-0.01,0.06-0.01C23.99,20.56,23.97,20.56,23.95,20.56"/>
	<path class="st0" d="M23.78,14.16c-0.06,0.01-0.11,0.01-0.17,0.01C23.67,14.17,23.73,14.17,23.78,14.16"/>
	<path class="st0" d="M23.15,20.75c0.02-0.01,0.05-0.02,0.07-0.02C23.19,20.74,23.17,20.74,23.15,20.75"/>
	<path class="st0" d="M22.37,21.09c0.02-0.01,0.04-0.02,0.07-0.04C22.41,21.07,22.39,21.08,22.37,21.09"/>
	<path class="st0" d="M23.47,20.66c0.02-0.01,0.05-0.01,0.07-0.02C23.51,20.65,23.49,20.65,23.47,20.66"/>
	<path class="st0" d="M23.63,20.62c0.02-0.01,0.05-0.01,0.07-0.01C23.67,20.61,23.65,20.61,23.63,20.62"/>
	<path class="st0" d="M23.79,20.59c0.02,0,0.04-0.01,0.07-0.01C23.83,20.58,23.81,20.58,23.79,20.59"/>
	<path class="st0" d="M23.31,20.7c0.02-0.01,0.05-0.01,0.07-0.02C23.35,20.69,23.33,20.69,23.31,20.7"/>
	<path class="st0" d="M22.99,20.81c0.02-0.01,0.05-0.02,0.07-0.03C23.04,20.79,23.01,20.8,22.99,20.81"/>
	<path class="st0" d="M24.45,14.04c-0.06,0.02-0.12,0.03-0.18,0.04C24.33,14.07,24.39,14.06,24.45,14.04"/>
	<path class="st0" d="M22.52,21.01c0.02-0.01,0.05-0.02,0.07-0.03C22.57,20.99,22.54,21,22.52,21.01"/>
	<path class="st0" d="M22.83,20.87c0.02-0.01,0.05-0.02,0.07-0.03C22.88,20.85,22.85,20.86,22.83,20.87"/>
	<path class="st0" d="M22.67,20.94c0.02-0.01,0.05-0.02,0.07-0.03C22.72,20.92,22.7,20.93,22.67,20.94"/>
	<g class="st1">
		<g>
			<defs>
				<rect id="SVGID_1_" x="13.41" y="12.02" width="1.92" height="1.07"/>
			</defs>
			<clipPath id="SVGID_2_">
				<use xlink:href="#SVGID_1_"  style="overflow:visible;"/>
			</clipPath>
			<path class="st2" d="M15.15,12.02c-0.6,0.19-1.18,0.49-1.7,0.87c-0.01,0.07-0.02,0.13-0.04,0.2c0.56-0.43,1.18-0.76,1.83-0.97
				c0.03-0.01,0.06-0.02,0.09-0.03c-0.05-0.02-0.11-0.04-0.16-0.07C15.16,12.03,15.15,12.02,15.15,12.02"/>
		</g>
	</g>
	<path class="st3" d="M18.31,11.97c0.27,0.06,0.53,0.13,0.79,0.23c-0.11-0.17-0.21-0.34-0.29-0.52
		C18.65,11.79,18.48,11.89,18.31,11.97"/>
	<path class="st0" d="M26.61,12.14c-0.01,0.03-0.02,0.06-0.03,0.08C26.59,12.2,26.6,12.17,26.61,12.14"/>
	<path class="st0" d="M26.69,11.92c-0.01,0.02-0.02,0.05-0.02,0.07C26.67,11.97,26.68,11.94,26.69,11.92"/>
	<path class="st4" d="M11.18,19.05c0.03,0.04,0.06,0.08,0.09,0.12c-0.22-0.95-0.21-1.95,0.04-2.9c-0.04,0.03-0.09,0.06-0.13,0.08
		C10.97,17.24,10.97,18.17,11.18,19.05"/>
	<path class="st0" d="M25.42,13.61c-0.05,0.03-0.11,0.07-0.16,0.1C25.32,13.68,25.37,13.64,25.42,13.61"/>
	<path class="st0" d="M26.51,12.36c-0.01,0.03-0.03,0.06-0.04,0.08C26.49,12.42,26.5,12.39,26.51,12.36"/>
	<path class="st0" d="M25.58,13.5c-0.04,0.03-0.08,0.06-0.13,0.09C25.5,13.56,25.54,13.53,25.58,13.5"/>
	<path class="st0" d="M12.31,21.4c0.01,0.01,0.02,0.02,0.02,0.03c-0.05-0.07-0.1-0.13-0.15-0.2c0,0,0,0.01,0,0.01
		C12.22,21.29,12.26,21.34,12.31,21.4"/>
	<path class="st0" d="M4.31,16.42c0,0.02-0.01,0.05-0.01,0.07c0.01,0,0.01,0,0.02,0C4.31,16.46,4.31,16.44,4.31,16.42"/>
	<path class="st0" d="M26.81,11.35c0,0.04-0.01,0.07-0.01,0.11C26.8,11.42,26.81,11.39,26.81,11.35"/>
	<path class="st0" d="M26.07,13.04c-0.04,0.05-0.09,0.1-0.13,0.14C25.99,13.13,26.03,13.09,26.07,13.04"/>
	<path class="st0" d="M13.29,10.43c0.03,0.02,0.07,0.04,0.1,0.06l0,0c0.01,0.01,0.02,0.01,0.03,0.02c-0.82-1.36-0.72-3.15,0.37-4.43
		c0.35-0.41,0.77-0.73,1.23-0.95c-0.48,0.08-0.95,0.18-1.42,0.31c-0.07,0.34-0.23,0.68-0.48,0.96c-0.7,0.82-1.88,0.99-2.78,0.46
		c-0.1,0.06-0.2,0.12-0.29,0.18c0.58,0.21,1.14,0.53,1.64,0.96C12.47,8.67,13.01,9.52,13.29,10.43L13.29,10.43z"/>
	<path class="st0" d="M25.23,13.73c-0.04,0.03-0.09,0.05-0.14,0.07C25.14,13.78,25.18,13.75,25.23,13.73"/>
	<polyline class="st0" points="26.75,11.69 26.75,11.69 26.75,11.69 	"/>
	<path class="st0" d="M25.77,13.35c-0.05,0.04-0.1,0.08-0.15,0.12C25.67,13.43,25.72,13.39,25.77,13.35"/>
	<path class="st0" d="M25.91,13.22c-0.04,0.04-0.08,0.08-0.12,0.11C25.83,13.29,25.87,13.26,25.91,13.22"/>
	<path class="st0" d="M27.58,22.64c0.01,0.04,0.03,0.08,0.04,0.11C27.61,22.72,27.59,22.68,27.58,22.64"/>
	<path class="st0" d="M22.04,21.28c-0.09,0.06-0.18,0.12-0.28,0.19c-0.06,0.07-0.11,0.14-0.18,0.22c0,0,0,0,0,0
		C21.73,21.53,21.87,21.39,22.04,21.28"/>
	<path class="st0" d="M26.27,12.78c-0.01,0.02-0.03,0.04-0.04,0.06C26.24,12.83,26.25,12.81,26.27,12.78"/>
	<path class="st0" d="M26.4,12.57c-0.02,0.03-0.03,0.05-0.05,0.08C26.37,12.62,26.39,12.6,26.4,12.57"/>
	<path class="st5" d="M17.41,23.75c-1.49,0.09-3.01-0.38-4.22-1.43c-0.26-0.22-0.49-0.46-0.71-0.72l0,0
		c-0.03-0.04-0.06-0.07-0.09-0.11c-0.05,0.02-0.09,0.03-0.14,0.05c0.01,0.04,0.02,0.08,0.02,0.13c0.33,1.86-0.14,3.85-1.47,5.39
		c-0.38,0.44-0.8,0.82-1.26,1.13c2.5,1.81,5.48,2.6,8.38,2.4C16.56,28.58,16.36,25.96,17.41,23.75"/>
	<path class="st6" d="M13.13,6.41c0.25-0.29,0.4-0.62,0.48-0.96c-1.14,0.32-2.23,0.79-3.26,1.42C11.24,7.4,12.42,7.23,13.13,6.41
		L13.13,6.41z"/>
	<path class="st0" d="M11.18,19.06c0.17,0.73,0.48,1.43,0.92,2.05c0.03,0.04,0.06,0.08,0.09,0.12c0,0,0-0.01,0-0.01
		c-0.44-0.63-0.75-1.33-0.92-2.05c-0.03-0.04-0.06-0.08-0.09-0.12C11.18,19.05,11.18,19.06,11.18,19.06"/>
	<path class="st7" d="M11.18,19.06c0.17,0.73,0.48,1.43,0.92,2.05c0.03,0.04,0.06,0.08,0.09,0.12c0,0,0-0.01,0-0.01
		c-0.44-0.63-0.75-1.33-0.92-2.05c-0.03-0.04-0.06-0.08-0.09-0.12C11.18,19.05,11.18,19.06,11.18,19.06"/>
	<path class="st0" d="M10.84,21.95L10.84,21.95c0.13-0.06,0.27-0.11,0.41-0.16c-0.16,0.02-0.32,0.04-0.49,0.05l0,0
		c-1.53,0.1-3.1-0.38-4.35-1.45c-1.21-1.03-1.91-2.44-2.08-3.9c-0.01,0-0.01,0-0.02,0c-0.35,3.48,0.71,7.05,3.13,9.79
		c0.18-1,0.62-1.96,1.32-2.79C9.35,22.81,10.06,22.29,10.84,21.95"/>
	<path class="st8" d="M10.84,21.95L10.84,21.95c0.13-0.06,0.27-0.11,0.41-0.16c-0.16,0.02-0.32,0.04-0.49,0.05l0,0
		c-1.53,0.1-3.1-0.38-4.35-1.45c-1.21-1.03-1.91-2.44-2.08-3.9c-0.01,0-0.01,0-0.02,0c-0.35,3.48,0.71,7.05,3.13,9.79
		c0.18-1,0.62-1.96,1.32-2.79C9.35,22.81,10.06,22.29,10.84,21.95"/>
	<path class="st9" d="M12.28,21.68c-0.01-0.04-0.02-0.08-0.02-0.13c-0.02,0.01-0.04,0.01-0.06,0.02c-0.31,0.1-0.63,0.17-0.95,0.22
		c-0.14,0.05-0.27,0.1-0.4,0.16l0,0c-0.78,0.34-1.49,0.86-2.08,1.55c-0.71,0.82-1.15,1.79-1.32,2.79c0.39,0.44,0.82,0.86,1.28,1.26
		c0.27,0.23,0.55,0.45,0.84,0.66c0.46-0.31,0.88-0.69,1.26-1.13C12.13,25.52,12.61,23.54,12.28,21.68"/>
	<path class="st10" d="M12.28,21.68c-0.01-0.04-0.02-0.08-0.02-0.13c-0.02,0.01-0.04,0.01-0.06,0.02c-0.31,0.1-0.63,0.17-0.95,0.22
		c-0.14,0.05-0.27,0.1-0.4,0.16l0,0c-0.78,0.34-1.49,0.86-2.08,1.55c-0.71,0.82-1.15,1.79-1.32,2.79c0.39,0.44,0.82,0.86,1.28,1.26
		c0.27,0.23,0.55,0.45,0.84,0.66c0.46-0.31,0.88-0.69,1.26-1.13C12.13,25.52,12.61,23.54,12.28,21.68"/>
	<g>
		<g>
			<defs>
				<rect id="SVGID_3_" x="27.62" y="22.76" width="0.02" height="0.07"/>
			</defs>
			<clipPath id="SVGID_4_">
				<use xlink:href="#SVGID_3_"  style="overflow:visible;"/>
			</clipPath>
			<g class="st11">
				<defs>
					<path id="SVGID_5_" d="M27.62,22.76c0.01,0.02,0.01,0.05,0.02,0.07C27.63,22.8,27.63,22.78,27.62,22.76"/>
				</defs>
				<clipPath id="SVGID_6_">
					<use xlink:href="#SVGID_5_"  style="overflow:visible;"/>
				</clipPath>
				
					<linearGradient id="SVGID_7_" gradientUnits="userSpaceOnUse" x1="-2710.2717" y1="2750.6448" x2="-2710.1958" y2="2750.6448" gradientTransform="matrix(15.2119 61.4709 61.4709 -15.2119 -127828.8906 208466.7656)">
					<stop  offset="0" style="stop-color:#F48F33"/>
					<stop  offset="1" style="stop-color:#F08D67"/>
				</linearGradient>
				<polygon class="st12" points="27.64,22.75 27.66,22.82 27.62,22.83 27.6,22.76 				"/>
			</g>
		</g>
	</g>
	<g>
		<g>
			<defs>
				<rect id="SVGID_8_" x="23.22" y="20.7" width="0.09" height="0.03"/>
			</defs>
			<clipPath id="SVGID_9_">
				<use xlink:href="#SVGID_8_"  style="overflow:visible;"/>
			</clipPath>
			<g class="st13">
				<defs>
					<path id="SVGID_10_" d="M23.22,20.73c0.03-0.01,0.06-0.02,0.09-0.03C23.28,20.71,23.25,20.72,23.22,20.73"/>
				</defs>
				<clipPath id="SVGID_11_">
					<use xlink:href="#SVGID_10_"  style="overflow:visible;"/>
				</clipPath>
				
					<linearGradient id="SVGID_12_" gradientUnits="userSpaceOnUse" x1="-2710.2717" y1="2751.3638" x2="-2710.1958" y2="2751.3638" gradientTransform="matrix(15.2119 61.4709 61.4709 -15.2119 -127876.7188 208478.6094)">
					<stop  offset="0" style="stop-color:#F48F33"/>
					<stop  offset="1" style="stop-color:#F08D67"/>
				</linearGradient>
				<polygon class="st14" points="23.3,20.68 23.31,20.73 23.22,20.75 23.21,20.7 				"/>
			</g>
		</g>
	</g>
	<g>
		<g>
			<defs>
				<rect id="SVGID_13_" x="22.9" y="20.81" width="0.09" height="0.03"/>
			</defs>
			<clipPath id="SVGID_14_">
				<use xlink:href="#SVGID_13_"  style="overflow:visible;"/>
			</clipPath>
			<g class="st15">
				<defs>
					<path id="SVGID_15_" d="M22.9,20.84c0.03-0.01,0.06-0.02,0.09-0.03C22.96,20.82,22.93,20.83,22.9,20.84"/>
				</defs>
				<clipPath id="SVGID_16_">
					<use xlink:href="#SVGID_15_"  style="overflow:visible;"/>
				</clipPath>
				
					<linearGradient id="SVGID_17_" gradientUnits="userSpaceOnUse" x1="-2710.2717" y1="2751.428" x2="-2710.1958" y2="2751.428" gradientTransform="matrix(15.2119 61.4709 61.4709 -15.2119 -127880.9922 208479.6719)">
					<stop  offset="0" style="stop-color:#F48F33"/>
					<stop  offset="1" style="stop-color:#F08D67"/>
				</linearGradient>
				<polygon class="st16" points="22.98,20.79 23,20.84 22.91,20.86 22.89,20.81 				"/>
			</g>
		</g>
	</g>
	<g>
		<g>
			<defs>
				<rect id="SVGID_18_" x="23.06" y="20.75" width="0.09" height="0.03"/>
			</defs>
			<clipPath id="SVGID_19_">
				<use xlink:href="#SVGID_18_"  style="overflow:visible;"/>
			</clipPath>
			<g class="st17">
				<defs>
					<path id="SVGID_20_" d="M23.06,20.78c0.03-0.01,0.06-0.02,0.09-0.03C23.12,20.76,23.09,20.77,23.06,20.78"/>
				</defs>
				<clipPath id="SVGID_21_">
					<use xlink:href="#SVGID_20_"  style="overflow:visible;"/>
				</clipPath>
				
					<linearGradient id="SVGID_22_" gradientUnits="userSpaceOnUse" x1="-2710.2717" y1="2751.3958" x2="-2710.1958" y2="2751.3958" gradientTransform="matrix(15.2119 61.4709 61.4709 -15.2119 -127878.8516 208479.1406)">
					<stop  offset="0" style="stop-color:#F48F33"/>
					<stop  offset="1" style="stop-color:#F08D67"/>
				</linearGradient>
				<polygon class="st18" points="23.14,20.73 23.15,20.78 23.07,20.8 23.05,20.75 				"/>
			</g>
		</g>
	</g>
	<g>
		<g>
			<defs>
				<rect id="SVGID_23_" x="23.54" y="20.62" width="0.09" height="0.02"/>
			</defs>
			<clipPath id="SVGID_24_">
				<use xlink:href="#SVGID_23_"  style="overflow:visible;"/>
			</clipPath>
			<g class="st19">
				<defs>
					<path id="SVGID_25_" d="M23.54,20.64c0.03-0.01,0.06-0.01,0.09-0.02C23.6,20.63,23.57,20.63,23.54,20.64"/>
				</defs>
				<clipPath id="SVGID_26_">
					<use xlink:href="#SVGID_25_"  style="overflow:visible;"/>
				</clipPath>
				
					<linearGradient id="SVGID_27_" gradientUnits="userSpaceOnUse" x1="-2710.2717" y1="2751.3003" x2="-2710.1958" y2="2751.3003" gradientTransform="matrix(15.2119 61.4709 61.4709 -15.2119 -127872.5 208477.5625)">
					<stop  offset="0" style="stop-color:#F48F33"/>
					<stop  offset="1" style="stop-color:#F08D67"/>
				</linearGradient>
				<polygon class="st20" points="23.62,20.6 23.63,20.64 23.54,20.66 23.53,20.62 				"/>
			</g>
		</g>
	</g>
	<g>
		<g>
			<defs>
				<rect id="SVGID_28_" x="27.04" y="21.67" width="0.1" height="0.13"/>
			</defs>
			<clipPath id="SVGID_29_">
				<use xlink:href="#SVGID_28_"  style="overflow:visible;"/>
			</clipPath>
			<g class="st21">
				<defs>
					<path id="SVGID_30_" d="M27.04,21.67c0.04,0.04,0.07,0.09,0.1,0.13C27.11,21.76,27.07,21.71,27.04,21.67"/>
				</defs>
				<clipPath id="SVGID_31_">
					<use xlink:href="#SVGID_30_"  style="overflow:visible;"/>
				</clipPath>
				
					<linearGradient id="SVGID_32_" gradientUnits="userSpaceOnUse" x1="-2710.2717" y1="2750.697" x2="-2710.1958" y2="2750.697" gradientTransform="matrix(15.2119 61.4709 61.4709 -15.2119 -127832.3594 208467.625)">
					<stop  offset="0" style="stop-color:#F48F33"/>
					<stop  offset="1" style="stop-color:#F08D67"/>
				</linearGradient>
				<polygon class="st22" points="27.13,21.65 27.17,21.8 27.04,21.83 27.01,21.68 				"/>
			</g>
		</g>
	</g>
	<g>
		<g>
			<defs>
				<rect id="SVGID_33_" x="23.38" y="20.66" width="0.09" height="0.02"/>
			</defs>
			<clipPath id="SVGID_34_">
				<use xlink:href="#SVGID_33_"  style="overflow:visible;"/>
			</clipPath>
			<g class="st23">
				<defs>
					<path id="SVGID_35_" d="M23.38,20.68c0.03-0.01,0.06-0.02,0.09-0.02C23.44,20.66,23.41,20.67,23.38,20.68"/>
				</defs>
				<clipPath id="SVGID_36_">
					<use xlink:href="#SVGID_35_"  style="overflow:visible;"/>
				</clipPath>
				
					<linearGradient id="SVGID_37_" gradientUnits="userSpaceOnUse" x1="-2710.2717" y1="2751.332" x2="-2710.1958" y2="2751.332" gradientTransform="matrix(15.2119 61.4709 61.4709 -15.2119 -127874.6016 208478.0781)">
					<stop  offset="0" style="stop-color:#F48F33"/>
					<stop  offset="1" style="stop-color:#F08D67"/>
				</linearGradient>
				<polygon class="st24" points="23.46,20.64 23.47,20.68 23.38,20.7 23.37,20.66 				"/>
			</g>
		</g>
	</g>
	<g>
		<g>
			<defs>
				<rect id="SVGID_38_" x="23.7" y="20.59" width="0.09" height="0.02"/>
			</defs>
			<clipPath id="SVGID_39_">
				<use xlink:href="#SVGID_38_"  style="overflow:visible;"/>
			</clipPath>
			<g class="st25">
				<defs>
					<path id="SVGID_40_" d="M23.7,20.6c0.03-0.01,0.06-0.01,0.09-0.02C23.76,20.59,23.73,20.6,23.7,20.6"/>
				</defs>
				<clipPath id="SVGID_41_">
					<use xlink:href="#SVGID_40_"  style="overflow:visible;"/>
				</clipPath>
				
					<linearGradient id="SVGID_42_" gradientUnits="userSpaceOnUse" x1="-2710.2717" y1="2751.2688" x2="-2710.1958" y2="2751.2688" gradientTransform="matrix(15.2119 61.4709 61.4709 -15.2119 -127870.4063 208477.0469)">
					<stop  offset="0" style="stop-color:#F48F33"/>
					<stop  offset="1" style="stop-color:#F08D67"/>
				</linearGradient>
				<polygon class="st26" points="23.78,20.57 23.79,20.6 23.7,20.63 23.69,20.59 				"/>
			</g>
		</g>
	</g>
	<g>
		<g>
			<defs>
				<rect id="SVGID_43_" x="27.32" y="22.08" width="0.09" height="0.16"/>
			</defs>
			<clipPath id="SVGID_44_">
				<use xlink:href="#SVGID_43_"  style="overflow:visible;"/>
			</clipPath>
			<g class="st27">
				<defs>
					<path id="SVGID_45_" d="M27.32,22.08c0.03,0.05,0.06,0.11,0.09,0.16C27.38,22.18,27.35,22.13,27.32,22.08"/>
				</defs>
				<clipPath id="SVGID_46_">
					<use xlink:href="#SVGID_45_"  style="overflow:visible;"/>
				</clipPath>
				
					<linearGradient id="SVGID_47_" gradientUnits="userSpaceOnUse" x1="-2710.2717" y1="2750.665" x2="-2710.1958" y2="2750.665" gradientTransform="matrix(15.2119 61.4709 61.4709 -15.2119 -127830.2344 208467.1094)">
					<stop  offset="0" style="stop-color:#F48F33"/>
					<stop  offset="1" style="stop-color:#F08D67"/>
				</linearGradient>
				<polygon class="st28" points="27.4,22.06 27.44,22.23 27.32,22.26 27.28,22.09 				"/>
			</g>
		</g>
	</g>
	<g>
		<g>
			<defs>
				<rect id="SVGID_48_" x="22.04" y="21.27" width="0.02" height="0.01"/>
			</defs>
			<clipPath id="SVGID_49_">
				<use xlink:href="#SVGID_48_"  style="overflow:visible;"/>
			</clipPath>
			<g class="st29">
				<defs>
					<path id="SVGID_50_" d="M22.05,21.27C22.05,21.28,22.05,21.28,22.05,21.27c0,0,0,0,0.01-0.01
						C22.06,21.27,22.06,21.27,22.05,21.27"/>
				</defs>
				<clipPath id="SVGID_51_">
					<use xlink:href="#SVGID_50_"  style="overflow:visible;"/>
				</clipPath>
				
					<linearGradient id="SVGID_52_" gradientUnits="userSpaceOnUse" x1="-2710.2717" y1="2751.6155" x2="-2710.1958" y2="2751.6155" gradientTransform="matrix(15.2119 61.4709 61.4709 -15.2119 -127893.4531 208482.75)">
					<stop  offset="0" style="stop-color:#F48F33"/>
					<stop  offset="1" style="stop-color:#F08D67"/>
				</linearGradient>
				<polygon class="st30" points="22.06,21.26 22.07,21.28 22.04,21.28 22.04,21.27 				"/>
			</g>
		</g>
	</g>
	<g>
		<g>
			<defs>
				<rect id="SVGID_53_" x="22.28" y="21.09" width="0.09" height="0.05"/>
			</defs>
			<clipPath id="SVGID_54_">
				<use xlink:href="#SVGID_53_"  style="overflow:visible;"/>
			</clipPath>
			<g class="st31">
				<defs>
					<path id="SVGID_55_" d="M22.28,21.14c0.03-0.02,0.06-0.03,0.09-0.05C22.34,21.11,22.31,21.12,22.28,21.14"/>
				</defs>
				<clipPath id="SVGID_56_">
					<use xlink:href="#SVGID_55_"  style="overflow:visible;"/>
				</clipPath>
				
					<linearGradient id="SVGID_57_" gradientUnits="userSpaceOnUse" x1="-2710.2717" y1="2751.5579" x2="-2710.1958" y2="2751.5579" gradientTransform="matrix(15.2119 61.4709 61.4709 -15.2119 -127889.625 208481.7969)">
					<stop  offset="0" style="stop-color:#F48F33"/>
					<stop  offset="1" style="stop-color:#F08D67"/>
				</linearGradient>
				<polygon class="st32" points="22.36,21.07 22.38,21.14 22.28,21.16 22.27,21.09 				"/>
			</g>
		</g>
	</g>
	<g>
		<g>
			<defs>
				<rect id="SVGID_58_" x="27.44" y="22.3" width="0.07" height="0.14"/>
			</defs>
			<clipPath id="SVGID_59_">
				<use xlink:href="#SVGID_58_"  style="overflow:visible;"/>
			</clipPath>
			<g class="st33">
				<defs>
					<path id="SVGID_60_" d="M27.44,22.3c0.02,0.05,0.04,0.1,0.07,0.14C27.48,22.4,27.46,22.35,27.44,22.3"/>
				</defs>
				<clipPath id="SVGID_61_">
					<use xlink:href="#SVGID_60_"  style="overflow:visible;"/>
				</clipPath>
				
					<linearGradient id="SVGID_62_" gradientUnits="userSpaceOnUse" x1="-2710.2717" y1="2750.6548" x2="-2710.1958" y2="2750.6548" gradientTransform="matrix(15.2119 61.4709 61.4709 -15.2119 -127829.5547 208466.9375)">
					<stop  offset="0" style="stop-color:#F48F33"/>
					<stop  offset="1" style="stop-color:#F08D67"/>
				</linearGradient>
				<polygon class="st34" points="27.5,22.29 27.54,22.44 27.44,22.46 27.41,22.31 				"/>
			</g>
		</g>
	</g>
	<g>
		<g>
			<defs>
				<rect id="SVGID_63_" x="22.12" y="21.18" width="0.09" height="0.05"/>
			</defs>
			<clipPath id="SVGID_64_">
				<use xlink:href="#SVGID_63_"  style="overflow:visible;"/>
			</clipPath>
			<g class="st35">
				<defs>
					<path id="SVGID_65_" d="M22.12,21.23c0.03-0.02,0.06-0.04,0.09-0.05C22.18,21.19,22.15,21.21,22.12,21.23"/>
				</defs>
				<clipPath id="SVGID_66_">
					<use xlink:href="#SVGID_65_"  style="overflow:visible;"/>
				</clipPath>
				
					<linearGradient id="SVGID_67_" gradientUnits="userSpaceOnUse" x1="-2710.2717" y1="2751.5906" x2="-2710.1958" y2="2751.5906" gradientTransform="matrix(15.2119 61.4709 61.4709 -15.2119 -127891.8047 208482.3438)">
					<stop  offset="0" style="stop-color:#F48F33"/>
					<stop  offset="1" style="stop-color:#F08D67"/>
				</linearGradient>
				<polygon class="st36" points="22.21,21.16 22.23,21.23 22.13,21.25 22.11,21.18 				"/>
			</g>
		</g>
	</g>
	<g>
		<g>
			<defs>
				<rect id="SVGID_68_" x="22.75" y="20.87" width="0.09" height="0.04"/>
			</defs>
			<clipPath id="SVGID_69_">
				<use xlink:href="#SVGID_68_"  style="overflow:visible;"/>
			</clipPath>
			<g class="st37">
				<defs>
					<path id="SVGID_70_" d="M22.75,20.91c0.03-0.01,0.06-0.02,0.09-0.04C22.8,20.88,22.77,20.89,22.75,20.91"/>
				</defs>
				<clipPath id="SVGID_71_">
					<use xlink:href="#SVGID_70_"  style="overflow:visible;"/>
				</clipPath>
				
					<linearGradient id="SVGID_72_" gradientUnits="userSpaceOnUse" x1="-2710.2717" y1="2751.4602" x2="-2710.1958" y2="2751.4602" gradientTransform="matrix(15.2119 61.4709 61.4709 -15.2119 -127883.1406 208480.2031)">
					<stop  offset="0" style="stop-color:#F48F33"/>
					<stop  offset="1" style="stop-color:#F08D67"/>
				</linearGradient>
				<polygon class="st38" points="22.83,20.85 22.84,20.9 22.75,20.93 22.74,20.87 				"/>
			</g>
		</g>
	</g>
	<g>
		<g>
			<defs>
				<rect id="SVGID_73_" x="27.17" y="21.85" width="0.12" height="0.19"/>
			</defs>
			<clipPath id="SVGID_74_">
				<use xlink:href="#SVGID_73_"  style="overflow:visible;"/>
			</clipPath>
			<g class="st39">
				<defs>
					<path id="SVGID_75_" d="M27.18,21.85c0.04,0.06,0.08,0.12,0.12,0.19C27.26,21.98,27.22,21.91,27.18,21.85"/>
				</defs>
				<clipPath id="SVGID_76_">
					<use xlink:href="#SVGID_75_"  style="overflow:visible;"/>
				</clipPath>
				
					<linearGradient id="SVGID_77_" gradientUnits="userSpaceOnUse" x1="-2710.2717" y1="2750.6787" x2="-2710.1958" y2="2750.6787" gradientTransform="matrix(15.2119 61.4709 61.4709 -15.2119 -127831.1563 208467.3281)">
					<stop  offset="0" style="stop-color:#F48F33"/>
					<stop  offset="1" style="stop-color:#F08D67"/>
				</linearGradient>
				<polygon class="st40" points="27.29,21.82 27.34,22.03 27.18,22.07 27.13,21.86 				"/>
			</g>
		</g>
	</g>
	<g>
		<g>
			<defs>
				<rect id="SVGID_78_" x="22.59" y="20.94" width="0.09" height="0.04"/>
			</defs>
			<clipPath id="SVGID_79_">
				<use xlink:href="#SVGID_78_"  style="overflow:visible;"/>
			</clipPath>
			<g class="st41">
				<defs>
					<path id="SVGID_80_" d="M22.59,20.98c0.03-0.01,0.06-0.03,0.09-0.04C22.65,20.95,22.62,20.96,22.59,20.98"/>
				</defs>
				<clipPath id="SVGID_81_">
					<use xlink:href="#SVGID_80_"  style="overflow:visible;"/>
				</clipPath>
				
					<linearGradient id="SVGID_82_" gradientUnits="userSpaceOnUse" x1="-2710.2717" y1="2751.4927" x2="-2710.1958" y2="2751.4927" gradientTransform="matrix(15.2119 61.4709 61.4709 -15.2119 -127885.2969 208480.7344)">
					<stop  offset="0" style="stop-color:#F48F33"/>
					<stop  offset="1" style="stop-color:#F08D67"/>
				</linearGradient>
				<polygon class="st42" points="22.67,20.92 22.68,20.98 22.59,21 22.58,20.94 				"/>
			</g>
		</g>
	</g>
	<g>
		<g>
			<defs>
				<rect id="SVGID_83_" x="22.43" y="21.01" width="0.09" height="0.04"/>
			</defs>
			<clipPath id="SVGID_84_">
				<use xlink:href="#SVGID_83_"  style="overflow:visible;"/>
			</clipPath>
			<g class="st43">
				<defs>
					<path id="SVGID_85_" d="M22.43,21.06c0.03-0.02,0.06-0.03,0.09-0.04C22.49,21.03,22.46,21.04,22.43,21.06"/>
				</defs>
				<clipPath id="SVGID_86_">
					<use xlink:href="#SVGID_85_"  style="overflow:visible;"/>
				</clipPath>
				
					<linearGradient id="SVGID_87_" gradientUnits="userSpaceOnUse" x1="-2710.2717" y1="2751.5251" x2="-2710.1958" y2="2751.5251" gradientTransform="matrix(15.2119 61.4709 61.4709 -15.2119 -127887.4609 208481.2656)">
					<stop  offset="0" style="stop-color:#F48F33"/>
					<stop  offset="1" style="stop-color:#F08D67"/>
				</linearGradient>
				<polygon class="st44" points="22.51,20.99 22.53,21.05 22.44,21.08 22.42,21.01 				"/>
			</g>
		</g>
	</g>
	<g>
		<g>
			<defs>
				<rect id="SVGID_88_" x="27.53" y="22.52" width="0.05" height="0.13"/>
			</defs>
			<clipPath id="SVGID_89_">
				<use xlink:href="#SVGID_88_"  style="overflow:visible;"/>
			</clipPath>
			<g class="st45">
				<defs>
					<path id="SVGID_90_" d="M27.55,22.56c-0.01-0.01-0.01-0.03-0.02-0.04c0.02,0.04,0.03,0.08,0.05,0.13
						C27.57,22.61,27.56,22.58,27.55,22.56"/>
				</defs>
				<clipPath id="SVGID_91_">
					<use xlink:href="#SVGID_90_"  style="overflow:visible;"/>
				</clipPath>
				
					<linearGradient id="SVGID_92_" gradientUnits="userSpaceOnUse" x1="-2710.2717" y1="2750.6484" x2="-2710.1958" y2="2750.6484" gradientTransform="matrix(15.2119 61.4709 61.4709 -15.2119 -127829.1328 208466.8281)">
					<stop  offset="0" style="stop-color:#F48F33"/>
					<stop  offset="1" style="stop-color:#F08D67"/>
				</linearGradient>
				<polygon class="st46" points="27.58,22.51 27.61,22.64 27.54,22.65 27.5,22.52 				"/>
			</g>
		</g>
	</g>
	<g>
		<g>
			<defs>
				<rect id="SVGID_93_" x="25.02" y="20.56" width="0.08" height="0.01"/>
			</defs>
			<clipPath id="SVGID_94_">
				<use xlink:href="#SVGID_93_"  style="overflow:visible;"/>
			</clipPath>
			<g class="st47">
				<defs>
					<path id="SVGID_95_" d="M25.02,20.56c0.03,0,0.06,0.01,0.08,0.01C25.07,20.57,25.04,20.56,25.02,20.56"/>
				</defs>
				<clipPath id="SVGID_96_">
					<use xlink:href="#SVGID_95_"  style="overflow:visible;"/>
				</clipPath>
				
					<linearGradient id="SVGID_97_" gradientUnits="userSpaceOnUse" x1="-2710.2717" y1="2751.0217" x2="-2710.1958" y2="2751.0217" gradientTransform="matrix(15.2119 61.4709 61.4709 -15.2119 -127853.9609 208472.9844)">
					<stop  offset="0" style="stop-color:#F48F33"/>
					<stop  offset="1" style="stop-color:#F08D67"/>
				</linearGradient>
				<polygon class="st48" points="25.1,20.54 25.1,20.57 25.02,20.59 25.01,20.56 				"/>
			</g>
		</g>
	</g>
	<g>
		<g>
			<defs>
				<rect id="SVGID_98_" x="26.29" y="21.01" width="0.08" height="0.05"/>
			</defs>
			<clipPath id="SVGID_99_">
				<use xlink:href="#SVGID_98_"  style="overflow:visible;"/>
			</clipPath>
			<g class="st49">
				<defs>
					<path id="SVGID_100_" d="M26.29,21.01c0.03,0.02,0.05,0.03,0.08,0.05C26.34,21.05,26.32,21.03,26.29,21.01"/>
				</defs>
				<clipPath id="SVGID_101_">
					<use xlink:href="#SVGID_100_"  style="overflow:visible;"/>
				</clipPath>
				
					<linearGradient id="SVGID_102_" gradientUnits="userSpaceOnUse" x1="-2710.2717" y1="2750.8062" x2="-2710.1958" y2="2750.8062" gradientTransform="matrix(15.2119 61.4709 61.4709 -15.2119 -127839.6328 208469.4375)">
					<stop  offset="0" style="stop-color:#F48F33"/>
					<stop  offset="1" style="stop-color:#F08D67"/>
				</linearGradient>
				<polygon class="st50" points="26.36,21 26.38,21.06 26.3,21.08 26.28,21.02 				"/>
			</g>
		</g>
	</g>
	<g>
		<g>
			<defs>
				<rect id="SVGID_103_" x="25.32" y="20.61" width="0.08" height="0.02"/>
			</defs>
			<clipPath id="SVGID_104_">
				<use xlink:href="#SVGID_103_"  style="overflow:visible;"/>
			</clipPath>
			<g class="st51">
				<defs>
					<path id="SVGID_105_" d="M25.32,20.61c0.03,0.01,0.05,0.01,0.08,0.02C25.37,20.63,25.34,20.62,25.32,20.61"/>
				</defs>
				<clipPath id="SVGID_106_">
					<use xlink:href="#SVGID_105_"  style="overflow:visible;"/>
				</clipPath>
				
					<linearGradient id="SVGID_107_" gradientUnits="userSpaceOnUse" x1="-2710.2717" y1="2750.9685" x2="-2710.1958" y2="2750.9685" gradientTransform="matrix(15.2119 61.4709 61.4709 -15.2119 -127850.4297 208472.1094)">
					<stop  offset="0" style="stop-color:#F48F33"/>
					<stop  offset="1" style="stop-color:#F08D67"/>
				</linearGradient>
				<polygon class="st52" points="25.39,20.59 25.4,20.63 25.32,20.65 25.31,20.61 				"/>
			</g>
		</g>
	</g>
	<g>
		<g>
			<defs>
				<rect id="SVGID_108_" x="25.17" y="20.58" width="0.08" height="0.02"/>
			</defs>
			<clipPath id="SVGID_109_">
				<use xlink:href="#SVGID_108_"  style="overflow:visible;"/>
			</clipPath>
			<g class="st53">
				<defs>
					<path id="SVGID_110_" d="M25.17,20.58c0.03,0.01,0.05,0.01,0.08,0.02C25.22,20.59,25.19,20.59,25.17,20.58"/>
				</defs>
				<clipPath id="SVGID_111_">
					<use xlink:href="#SVGID_110_"  style="overflow:visible;"/>
				</clipPath>
				
					<linearGradient id="SVGID_112_" gradientUnits="userSpaceOnUse" x1="-2710.2717" y1="2750.9949" x2="-2710.1958" y2="2750.9949" gradientTransform="matrix(15.2119 61.4709 61.4709 -15.2119 -127852.1719 208472.5313)">
					<stop  offset="0" style="stop-color:#F48F33"/>
					<stop  offset="1" style="stop-color:#F08D67"/>
				</linearGradient>
				<polygon class="st54" points="25.24,20.56 25.25,20.6 25.17,20.62 25.16,20.58 				"/>
			</g>
		</g>
	</g>
	<g>
		<g>
			<defs>
				<rect id="SVGID_113_" x="26.42" y="21.1" width="0.08" height="0.06"/>
			</defs>
			<clipPath id="SVGID_114_">
				<use xlink:href="#SVGID_113_"  style="overflow:visible;"/>
			</clipPath>
			<g class="st55">
				<defs>
					<path id="SVGID_115_" d="M26.42,21.1c0.03,0.02,0.05,0.04,0.08,0.06C26.47,21.14,26.45,21.12,26.42,21.1"/>
				</defs>
				<clipPath id="SVGID_116_">
					<use xlink:href="#SVGID_115_"  style="overflow:visible;"/>
				</clipPath>
				
					<linearGradient id="SVGID_117_" gradientUnits="userSpaceOnUse" x1="-2710.2717" y1="2750.7861" x2="-2710.1958" y2="2750.7861" gradientTransform="matrix(15.2119 61.4709 61.4709 -15.2119 -127838.2891 208469.0938)">
					<stop  offset="0" style="stop-color:#F48F33"/>
					<stop  offset="1" style="stop-color:#F08D67"/>
				</linearGradient>
				<polygon class="st56" points="26.5,21.08 26.51,21.15 26.42,21.18 26.4,21.1 				"/>
			</g>
		</g>
	</g>
	<g>
		<g>
			<defs>
				<rect id="SVGID_118_" x="24.86" y="20.54" width="0.09" height="0.01"/>
			</defs>
			<clipPath id="SVGID_119_">
				<use xlink:href="#SVGID_118_"  style="overflow:visible;"/>
			</clipPath>
			<g class="st57">
				<defs>
					<path id="SVGID_120_" d="M24.86,20.54c0.03,0,0.06,0.01,0.09,0.01C24.92,20.54,24.89,20.54,24.86,20.54"/>
				</defs>
				<clipPath id="SVGID_121_">
					<use xlink:href="#SVGID_120_"  style="overflow:visible;"/>
				</clipPath>
				
					<linearGradient id="SVGID_122_" gradientUnits="userSpaceOnUse" x1="-2710.2717" y1="2751.0493" x2="-2710.1958" y2="2751.0493" gradientTransform="matrix(15.2119 61.4709 61.4709 -15.2119 -127855.8047 208473.4375)">
					<stop  offset="0" style="stop-color:#F48F33"/>
					<stop  offset="1" style="stop-color:#F08D67"/>
				</linearGradient>
				<polygon class="st58" points="24.94,20.52 24.95,20.55 24.87,20.57 24.86,20.54 				"/>
			</g>
		</g>
	</g>
	<g>
		<g>
			<defs>
				<rect id="SVGID_123_" x="26.03" y="20.87" width="0.08" height="0.04"/>
			</defs>
			<clipPath id="SVGID_124_">
				<use xlink:href="#SVGID_123_"  style="overflow:visible;"/>
			</clipPath>
			<g class="st59">
				<defs>
					<path id="SVGID_125_" d="M26.03,20.87c0.03,0.01,0.05,0.03,0.07,0.04C26.08,20.89,26.05,20.88,26.03,20.87"/>
				</defs>
				<clipPath id="SVGID_126_">
					<use xlink:href="#SVGID_125_"  style="overflow:visible;"/>
				</clipPath>
				
					<linearGradient id="SVGID_127_" gradientUnits="userSpaceOnUse" x1="-2710.2717" y1="2750.8486" x2="-2710.1958" y2="2750.8486" gradientTransform="matrix(15.2119 61.4709 61.4709 -15.2119 -127842.4453 208470.125)">
					<stop  offset="0" style="stop-color:#F48F33"/>
					<stop  offset="1" style="stop-color:#F08D67"/>
				</linearGradient>
				<polygon class="st60" points="26.1,20.85 26.11,20.9 26.03,20.92 26.02,20.87 				"/>
			</g>
		</g>
	</g>
	<g>
		<g>
			<defs>
				<rect id="SVGID_128_" x="25.89" y="20.8" width="0.08" height="0.03"/>
			</defs>
			<clipPath id="SVGID_129_">
				<use xlink:href="#SVGID_128_"  style="overflow:visible;"/>
			</clipPath>
			<g class="st61">
				<defs>
					<path id="SVGID_130_" d="M25.89,20.8c0.03,0.01,0.05,0.02,0.08,0.03C25.94,20.83,25.92,20.81,25.89,20.8"/>
				</defs>
				<clipPath id="SVGID_131_">
					<use xlink:href="#SVGID_130_"  style="overflow:visible;"/>
				</clipPath>
				
					<linearGradient id="SVGID_132_" gradientUnits="userSpaceOnUse" x1="-2710.2717" y1="2750.8711" x2="-2710.1958" y2="2750.8711" gradientTransform="matrix(15.2119 61.4709 61.4709 -15.2119 -127843.9375 208470.5)">
					<stop  offset="0" style="stop-color:#F48F33"/>
					<stop  offset="1" style="stop-color:#F08D67"/>
				</linearGradient>
				<polygon class="st62" points="25.96,20.78 25.97,20.84 25.89,20.85 25.88,20.8 				"/>
			</g>
		</g>
	</g>
	<g>
		<g>
			<defs>
				<rect id="SVGID_133_" x="25.46" y="20.65" width="0.08" height="0.02"/>
			</defs>
			<clipPath id="SVGID_134_">
				<use xlink:href="#SVGID_133_"  style="overflow:visible;"/>
			</clipPath>
			<g class="st63">
				<defs>
					<path id="SVGID_135_" d="M25.46,20.65c0.03,0.01,0.05,0.02,0.08,0.02C25.52,20.67,25.49,20.66,25.46,20.65"/>
				</defs>
				<clipPath id="SVGID_136_">
					<use xlink:href="#SVGID_135_"  style="overflow:visible;"/>
				</clipPath>
				
					<linearGradient id="SVGID_137_" gradientUnits="userSpaceOnUse" x1="-2710.2717" y1="2750.9431" x2="-2710.1958" y2="2750.9431" gradientTransform="matrix(15.2119 61.4709 61.4709 -15.2119 -127848.7266 208471.6875)">
					<stop  offset="0" style="stop-color:#F48F33"/>
					<stop  offset="1" style="stop-color:#F08D67"/>
				</linearGradient>
				<polygon class="st64" points="25.54,20.63 25.55,20.67 25.47,20.69 25.46,20.65 				"/>
			</g>
		</g>
	</g>
	<g>
		<g>
			<defs>
				<rect id="SVGID_138_" x="26.16" y="20.94" width="0.08" height="0.04"/>
			</defs>
			<clipPath id="SVGID_139_">
				<use xlink:href="#SVGID_138_"  style="overflow:visible;"/>
			</clipPath>
			<g class="st65">
				<defs>
					<path id="SVGID_140_" d="M26.16,20.94c0.03,0.01,0.05,0.03,0.08,0.04C26.21,20.97,26.19,20.95,26.16,20.94"/>
				</defs>
				<clipPath id="SVGID_141_">
					<use xlink:href="#SVGID_140_"  style="overflow:visible;"/>
				</clipPath>
				
					<linearGradient id="SVGID_142_" gradientUnits="userSpaceOnUse" x1="-2710.2717" y1="2750.8269" x2="-2710.1958" y2="2750.8269" gradientTransform="matrix(15.2119 61.4709 61.4709 -15.2119 -127841.0078 208469.7656)">
					<stop  offset="0" style="stop-color:#F48F33"/>
					<stop  offset="1" style="stop-color:#F08D67"/>
				</linearGradient>
				<polygon class="st66" points="26.23,20.92 26.25,20.98 26.17,21 26.15,20.94 				"/>
			</g>
		</g>
	</g>
	<g>
		<g>
			<defs>
				<rect id="SVGID_143_" x="25.75" y="20.75" width="0.08" height="0.03"/>
			</defs>
			<clipPath id="SVGID_144_">
				<use xlink:href="#SVGID_143_"  style="overflow:visible;"/>
			</clipPath>
			<g class="st67">
				<defs>
					<path id="SVGID_145_" d="M25.75,20.75c0.03,0.01,0.05,0.02,0.08,0.03C25.8,20.77,25.78,20.75,25.75,20.75"/>
				</defs>
				<clipPath id="SVGID_146_">
					<use xlink:href="#SVGID_145_"  style="overflow:visible;"/>
				</clipPath>
				
					<linearGradient id="SVGID_147_" gradientUnits="userSpaceOnUse" x1="-2710.2717" y1="2750.8943" x2="-2710.1958" y2="2750.8943" gradientTransform="matrix(15.2119 61.4709 61.4709 -15.2119 -127845.4844 208470.875)">
					<stop  offset="0" style="stop-color:#F48F33"/>
					<stop  offset="1" style="stop-color:#F08D67"/>
				</linearGradient>
				<polygon class="st68" points="25.82,20.73 25.83,20.77 25.76,20.79 25.74,20.75 				"/>
			</g>
		</g>
	</g>
	<g>
		<g>
			<defs>
				<rect id="SVGID_148_" x="25.61" y="20.69" width="0.08" height="0.03"/>
			</defs>
			<clipPath id="SVGID_149_">
				<use xlink:href="#SVGID_148_"  style="overflow:visible;"/>
			</clipPath>
			<g class="st69">
				<defs>
					<path id="SVGID_150_" d="M25.61,20.69c0.03,0.01,0.05,0.02,0.08,0.03C25.66,20.71,25.63,20.7,25.61,20.69"/>
				</defs>
				<clipPath id="SVGID_151_">
					<use xlink:href="#SVGID_150_"  style="overflow:visible;"/>
				</clipPath>
				
					<linearGradient id="SVGID_152_" gradientUnits="userSpaceOnUse" x1="-2710.2717" y1="2750.9182" x2="-2710.1958" y2="2750.9182" gradientTransform="matrix(15.2119 61.4709 61.4709 -15.2119 -127847.0781 208471.2813)">
					<stop  offset="0" style="stop-color:#F48F33"/>
					<stop  offset="1" style="stop-color:#F08D67"/>
				</linearGradient>
				<polygon class="st70" points="25.68,20.68 25.69,20.72 25.61,20.74 25.6,20.7 				"/>
			</g>
		</g>
	</g>
	<g>
		<g>
			<defs>
				<rect id="SVGID_153_" x="26.54" y="21.19" width="0.12" height="0.1"/>
			</defs>
			<clipPath id="SVGID_154_">
				<use xlink:href="#SVGID_153_"  style="overflow:visible;"/>
			</clipPath>
			<g class="st71">
				<defs>
					<path id="SVGID_155_" d="M26.54,21.19c0.04,0.03,0.08,0.06,0.12,0.1C26.62,21.25,26.58,21.22,26.54,21.19"/>
				</defs>
				<clipPath id="SVGID_156_">
					<use xlink:href="#SVGID_155_"  style="overflow:visible;"/>
				</clipPath>
				
					<linearGradient id="SVGID_157_" gradientUnits="userSpaceOnUse" x1="-2710.2717" y1="2750.7646" x2="-2710.1958" y2="2750.7646" gradientTransform="matrix(15.2119 61.4709 61.4709 -15.2119 -127836.8594 208468.75)">
					<stop  offset="0" style="stop-color:#F48F33"/>
					<stop  offset="1" style="stop-color:#F08D67"/>
				</linearGradient>
				<polygon class="st72" points="26.65,21.16 26.68,21.28 26.55,21.31 26.52,21.19 				"/>
			</g>
		</g>
	</g>
	<g>
		<g>
			<defs>
				<rect id="SVGID_158_" x="24.17" y="20.53" width="0.16" height="0.01"/>
			</defs>
			<clipPath id="SVGID_159_">
				<use xlink:href="#SVGID_158_"  style="overflow:visible;"/>
			</clipPath>
			<g class="st73">
				<defs>
					<path id="SVGID_160_" d="M24.17,20.54c0.05,0,0.11-0.01,0.16-0.01C24.28,20.53,24.22,20.53,24.17,20.54"/>
				</defs>
				<clipPath id="SVGID_161_">
					<use xlink:href="#SVGID_160_"  style="overflow:visible;"/>
				</clipPath>
				
					<linearGradient id="SVGID_162_" gradientUnits="userSpaceOnUse" x1="-2710.2717" y1="2751.1709" x2="-2710.1958" y2="2751.1709" gradientTransform="matrix(15.2119 61.4709 61.4709 -15.2119 -127863.8906 208475.4375)">
					<stop  offset="0" style="stop-color:#F48F33"/>
					<stop  offset="1" style="stop-color:#F08D67"/>
				</linearGradient>
				<polygon class="st74" points="24.32,20.49 24.33,20.54 24.18,20.57 24.17,20.53 				"/>
			</g>
		</g>
	</g>
	<g>
		<g>
			<defs>
				<rect id="SVGID_163_" x="26.88" y="21.49" width="0.11" height="0.12"/>
			</defs>
			<clipPath id="SVGID_164_">
				<use xlink:href="#SVGID_163_"  style="overflow:visible;"/>
			</clipPath>
			<g class="st75">
				<defs>
					<path id="SVGID_165_" d="M26.88,21.49c0.04,0.04,0.07,0.08,0.11,0.12C26.95,21.57,26.92,21.53,26.88,21.49"/>
				</defs>
				<clipPath id="SVGID_166_">
					<use xlink:href="#SVGID_165_"  style="overflow:visible;"/>
				</clipPath>
				
					<linearGradient id="SVGID_167_" gradientUnits="userSpaceOnUse" x1="-2710.2717" y1="2750.7173" x2="-2710.1958" y2="2750.7173" gradientTransform="matrix(15.2119 61.4709 61.4709 -15.2119 -127833.7188 208467.9688)">
					<stop  offset="0" style="stop-color:#F48F33"/>
					<stop  offset="1" style="stop-color:#F08D67"/>
				</linearGradient>
				<polygon class="st76" points="26.98,21.47 27.02,21.61 26.89,21.64 26.85,21.5 				"/>
			</g>
		</g>
	</g>
	<g>
		<g>
			<defs>
				<rect id="SVGID_168_" x="26.66" y="21.29" width="0.17" height="0.16"/>
			</defs>
			<clipPath id="SVGID_169_">
				<use xlink:href="#SVGID_168_"  style="overflow:visible;"/>
			</clipPath>
			<g class="st77">
				<defs>
					<path id="SVGID_170_" d="M26.66,21.29c0.06,0.05,0.11,0.1,0.17,0.16C26.78,21.39,26.72,21.34,26.66,21.29"/>
				</defs>
				<clipPath id="SVGID_171_">
					<use xlink:href="#SVGID_170_"  style="overflow:visible;"/>
				</clipPath>
				
					<linearGradient id="SVGID_172_" gradientUnits="userSpaceOnUse" x1="-2710.2717" y1="2750.7437" x2="-2710.1958" y2="2750.7437" gradientTransform="matrix(15.2119 61.4709 61.4709 -15.2119 -127835.4609 208468.3906)">
					<stop  offset="0" style="stop-color:#F48F33"/>
					<stop  offset="1" style="stop-color:#F08D67"/>
				</linearGradient>
				<polygon class="st78" points="26.82,21.25 26.87,21.43 26.67,21.48 26.63,21.29 				"/>
			</g>
		</g>
	</g>
	<g>
		<g>
			<defs>
				<rect id="SVGID_173_" x="24.7" y="20.53" width="0.09" height="0.01"/>
			</defs>
			<clipPath id="SVGID_174_">
				<use xlink:href="#SVGID_173_"  style="overflow:visible;"/>
			</clipPath>
			<g class="st79">
				<defs>
					<path id="SVGID_175_" d="M24.7,20.53c0.03,0,0.06,0,0.09,0.01C24.76,20.53,24.73,20.53,24.7,20.53"/>
				</defs>
				<clipPath id="SVGID_176_">
					<use xlink:href="#SVGID_175_"  style="overflow:visible;"/>
				</clipPath>
				
					<linearGradient id="SVGID_177_" gradientUnits="userSpaceOnUse" x1="-2710.2717" y1="2751.0776" x2="-2710.1958" y2="2751.0776" gradientTransform="matrix(15.2119 61.4709 61.4709 -15.2119 -127857.6875 208473.9063)">
					<stop  offset="0" style="stop-color:#F48F33"/>
					<stop  offset="1" style="stop-color:#F08D67"/>
				</linearGradient>
				<polygon class="st80" points="24.79,20.51 24.8,20.53 24.71,20.55 24.7,20.53 				"/>
			</g>
		</g>
	</g>
	<g>
		<g>
			<defs>
				<rect id="SVGID_178_" x="24.01" y="20.54" width="0.11" height="0.01"/>
			</defs>
			<clipPath id="SVGID_179_">
				<use xlink:href="#SVGID_178_"  style="overflow:visible;"/>
			</clipPath>
			<g class="st81">
				<defs>
					<path id="SVGID_180_" d="M24.01,20.55c0.04,0,0.07-0.01,0.11-0.01C24.09,20.54,24.05,20.55,24.01,20.55"/>
				</defs>
				<clipPath id="SVGID_181_">
					<use xlink:href="#SVGID_180_"  style="overflow:visible;"/>
				</clipPath>
				
					<linearGradient id="SVGID_182_" gradientUnits="userSpaceOnUse" x1="-2710.2717" y1="2751.2058" x2="-2710.1958" y2="2751.2058" gradientTransform="matrix(15.2119 61.4709 61.4709 -15.2119 -127866.2109 208476)">
					<stop  offset="0" style="stop-color:#F48F33"/>
					<stop  offset="1" style="stop-color:#F08D67"/>
				</linearGradient>
				<polygon class="st82" points="24.12,20.52 24.12,20.55 24.02,20.58 24.01,20.54 				"/>
			</g>
		</g>
	</g>
	<g>
		<g>
			<defs>
				<rect id="SVGID_183_" x="24.34" y="20.52" width="0.14" height="0"/>
			</defs>
			<clipPath id="SVGID_184_">
				<use xlink:href="#SVGID_183_"  style="overflow:visible;"/>
			</clipPath>
			<g class="st83">
				<defs>
					<path id="SVGID_185_" d="M24.34,20.53c0.05,0,0.09,0,0.14,0C24.44,20.52,24.39,20.52,24.34,20.53"/>
				</defs>
				<clipPath id="SVGID_186_">
					<use xlink:href="#SVGID_185_"  style="overflow:visible;"/>
				</clipPath>
				
					<linearGradient id="SVGID_187_" gradientUnits="userSpaceOnUse" x1="-2710.2717" y1="2751.1399" x2="-2710.1958" y2="2751.1399" gradientTransform="matrix(15.2119 61.4709 61.4709 -15.2119 -127861.8281 208474.9219)">
					<stop  offset="0" style="stop-color:#F48F33"/>
					<stop  offset="1" style="stop-color:#F08D67"/>
				</linearGradient>
				<polygon class="st84" points="24.48,20.49 24.49,20.53 24.35,20.56 24.34,20.52 				"/>
			</g>
		</g>
	</g>
	<g>
		<g>
			<defs>
				<rect id="SVGID_188_" x="23.85" y="20.56" width="0.1" height="0.01"/>
			</defs>
			<clipPath id="SVGID_189_">
				<use xlink:href="#SVGID_188_"  style="overflow:visible;"/>
			</clipPath>
			<g class="st85">
				<defs>
					<path id="SVGID_190_" d="M23.85,20.58c0.03-0.01,0.06-0.01,0.1-0.01C23.92,20.57,23.89,20.57,23.85,20.58"/>
				</defs>
				<clipPath id="SVGID_191_">
					<use xlink:href="#SVGID_190_"  style="overflow:visible;"/>
				</clipPath>
				
					<linearGradient id="SVGID_192_" gradientUnits="userSpaceOnUse" x1="-2710.2717" y1="2751.2373" x2="-2710.1958" y2="2751.2373" gradientTransform="matrix(15.2119 61.4709 61.4709 -15.2119 -127868.3125 208476.5313)">
					<stop  offset="0" style="stop-color:#F48F33"/>
					<stop  offset="1" style="stop-color:#F08D67"/>
				</linearGradient>
				<polygon class="st86" points="23.95,20.54 23.96,20.57 23.86,20.6 23.85,20.56 				"/>
			</g>
		</g>
	</g>
	<g>
		<g>
			<defs>
				<rect id="SVGID_193_" x="24.54" y="20.52" width="0.1" height="0"/>
			</defs>
			<clipPath id="SVGID_194_">
				<use xlink:href="#SVGID_193_"  style="overflow:visible;"/>
			</clipPath>
			<g class="st87">
				<defs>
					<path id="SVGID_195_" d="M24.54,20.52c0.03,0,0.07,0,0.1,0C24.61,20.52,24.57,20.52,24.54,20.52"/>
				</defs>
				<clipPath id="SVGID_196_">
					<use xlink:href="#SVGID_195_"  style="overflow:visible;"/>
				</clipPath>
				
					<linearGradient id="SVGID_197_" gradientUnits="userSpaceOnUse" x1="-2710.2717" y1="2751.1072" x2="-2710.1958" y2="2751.1072" gradientTransform="matrix(15.2119 61.4709 61.4709 -15.2119 -127859.6484 208474.3906)">
					<stop  offset="0" style="stop-color:#F48F33"/>
					<stop  offset="1" style="stop-color:#F08D67"/>
				</linearGradient>
				<polygon class="st88" points="24.64,20.5 24.64,20.52 24.54,20.55 24.54,20.52 				"/>
			</g>
		</g>
	</g>
	<path class="st0" d="M26.96,25.97c0.72-0.88,0.99-2.06,0.68-3.15c-0.01-0.02-0.01-0.05-0.02-0.07c-0.01-0.04-0.03-0.08-0.04-0.11
		c-0.01-0.04-0.03-0.08-0.05-0.13c-0.01-0.02-0.02-0.05-0.03-0.07c-0.02-0.05-0.04-0.1-0.07-0.14c-0.01-0.02-0.02-0.04-0.03-0.07
		c-0.03-0.05-0.06-0.11-0.09-0.16c-0.01-0.01-0.01-0.03-0.02-0.04c-0.04-0.06-0.08-0.13-0.12-0.19c-0.01-0.02-0.02-0.03-0.04-0.05
		c-0.03-0.04-0.07-0.09-0.1-0.13c-0.02-0.02-0.03-0.04-0.05-0.06c-0.03-0.04-0.07-0.08-0.11-0.12c-0.02-0.02-0.03-0.03-0.05-0.05
		c-0.05-0.05-0.11-0.11-0.17-0.16c-0.04-0.03-0.08-0.07-0.12-0.1c-0.01-0.01-0.03-0.02-0.04-0.03c-0.03-0.02-0.05-0.04-0.08-0.06
		c-0.02-0.01-0.03-0.02-0.05-0.03c-0.03-0.02-0.05-0.03-0.08-0.05c-0.02-0.01-0.04-0.02-0.06-0.03c-0.02-0.01-0.05-0.03-0.08-0.04
		c-0.02-0.01-0.04-0.02-0.06-0.03c-0.02-0.01-0.05-0.03-0.07-0.04c-0.02-0.01-0.04-0.02-0.06-0.03c-0.03-0.01-0.05-0.02-0.08-0.03
		c-0.02-0.01-0.04-0.02-0.06-0.03c-0.03-0.01-0.05-0.02-0.08-0.03c-0.02-0.01-0.04-0.02-0.06-0.02c-0.03-0.01-0.05-0.02-0.08-0.03
		c-0.02-0.01-0.04-0.01-0.07-0.02c-0.03-0.01-0.05-0.02-0.08-0.02c-0.02-0.01-0.04-0.01-0.07-0.02c-0.03-0.01-0.05-0.01-0.08-0.02
		c-0.02-0.01-0.04-0.01-0.07-0.02c-0.03-0.01-0.05-0.01-0.08-0.02c-0.02,0-0.04-0.01-0.07-0.01c-0.03,0-0.06-0.01-0.08-0.01
		c-0.02,0-0.04-0.01-0.07-0.01c-0.03,0-0.06-0.01-0.09-0.01c-0.02,0-0.04,0-0.07-0.01c-0.03,0-0.06,0-0.09-0.01
		c-0.02,0-0.04,0-0.06,0c-0.03,0-0.07,0-0.1,0c-0.02,0-0.04,0-0.05,0c-0.05,0-0.09,0-0.14,0c0,0-0.01,0-0.01,0
		c-0.05,0-0.1,0.01-0.16,0.01c-0.02,0-0.03,0-0.05,0.01c-0.04,0-0.07,0.01-0.11,0.01c-0.02,0-0.04,0.01-0.06,0.01
		c-0.03,0-0.06,0.01-0.1,0.01c-0.02,0-0.04,0.01-0.07,0.01c-0.03,0.01-0.06,0.01-0.09,0.02c-0.02,0-0.05,0.01-0.07,0.01
		c-0.03,0.01-0.06,0.01-0.09,0.02c-0.02,0.01-0.05,0.01-0.07,0.02c-0.03,0.01-0.06,0.02-0.09,0.02c-0.02,0.01-0.05,0.01-0.07,0.02
		c-0.03,0.01-0.06,0.02-0.09,0.03c-0.02,0.01-0.05,0.02-0.07,0.02c-0.03,0.01-0.06,0.02-0.09,0.03c-0.02,0.01-0.05,0.02-0.07,0.03
		c-0.03,0.01-0.06,0.02-0.09,0.03c-0.02,0.01-0.05,0.02-0.07,0.03c-0.03,0.01-0.06,0.02-0.09,0.04c-0.02,0.01-0.05,0.02-0.07,0.03
		c-0.03,0.01-0.06,0.03-0.09,0.04c-0.02,0.01-0.05,0.02-0.07,0.03c-0.03,0.01-0.06,0.03-0.09,0.04c-0.02,0.01-0.05,0.02-0.07,0.04
		c-0.03,0.02-0.06,0.03-0.09,0.05c-0.02,0.01-0.04,0.02-0.06,0.04c-0.03,0.02-0.06,0.04-0.09,0.05c-0.02,0.01-0.04,0.02-0.06,0.04
		c-0.01,0-0.01,0.01-0.02,0.01c-0.17,0.11-0.32,0.25-0.45,0.4c0,0,0,0,0,0c-0.3,0.35-0.63,0.66-0.99,0.92
		c-0.82,0.61-1.78,0.98-2.76,1.11c1.54,1.98,1.66,4.77,0.23,6.88c1.78-0.14,3.54-0.65,5.14-1.52c1.33-0.72,2.55-1.7,3.59-2.91
		C26.86,26.09,26.91,26.03,26.96,25.97"/>
	<g>
		<defs>
			<path id="SVGID_198_" d="M24.49,20.52c-0.05,0-0.09,0-0.14,0c-0.01,0-0.01,0-0.01,0c-0.05,0-0.1,0.01-0.16,0.01
				c-0.02,0-0.03,0-0.05,0.01c-0.04,0-0.07,0.01-0.11,0.01c-0.02,0-0.04,0.01-0.06,0.01c-0.03,0-0.06,0.01-0.1,0.01
				c-0.02,0-0.04,0.01-0.07,0.01c-0.03,0.01-0.06,0.01-0.09,0.02c-0.02,0-0.05,0.01-0.07,0.01c-0.03,0.01-0.06,0.01-0.09,0.02
				c-0.02,0.01-0.05,0.01-0.07,0.02c-0.03,0.01-0.06,0.02-0.09,0.02c-0.02,0.01-0.05,0.01-0.07,0.02c-0.03,0.01-0.06,0.02-0.09,0.03
				c-0.02,0.01-0.05,0.02-0.07,0.02c-0.03,0.01-0.06,0.02-0.09,0.03c-0.02,0.01-0.05,0.02-0.07,0.03c-0.03,0.01-0.06,0.02-0.09,0.03
				c-0.02,0.01-0.05,0.02-0.07,0.03c-0.03,0.01-0.06,0.02-0.09,0.04c-0.02,0.01-0.05,0.02-0.07,0.03c-0.03,0.01-0.06,0.03-0.09,0.04
				c-0.02,0.01-0.05,0.02-0.07,0.03c-0.03,0.01-0.06,0.03-0.09,0.04c-0.02,0.01-0.05,0.02-0.07,0.04c-0.03,0.02-0.06,0.03-0.09,0.05
				c-0.02,0.01-0.04,0.02-0.06,0.04c-0.03,0.02-0.06,0.04-0.09,0.05c-0.02,0.01-0.04,0.02-0.06,0.04c-0.01,0-0.01,0.01-0.02,0.01
				c-0.17,0.11-0.32,0.25-0.45,0.4c0,0,0,0,0,0c-0.3,0.35-0.63,0.66-0.99,0.92c-0.82,0.61-1.78,0.98-2.76,1.11
				c1.54,1.98,1.66,4.77,0.23,6.88c1.78-0.14,3.54-0.65,5.14-1.52c1.33-0.72,2.55-1.7,3.59-2.91c0.05-0.06,0.1-0.12,0.15-0.18
				c0.72-0.88,0.99-2.06,0.68-3.15c-0.01-0.02-0.01-0.05-0.02-0.07c-0.01-0.04-0.03-0.08-0.04-0.11c-0.01-0.04-0.03-0.08-0.05-0.13
				c-0.01-0.02-0.02-0.05-0.03-0.07c-0.02-0.05-0.04-0.1-0.07-0.14c-0.01-0.02-0.02-0.04-0.03-0.07c-0.03-0.05-0.06-0.11-0.09-0.16
				c-0.01-0.01-0.01-0.03-0.02-0.04c-0.04-0.06-0.08-0.13-0.12-0.19c-0.01-0.02-0.02-0.03-0.04-0.05c-0.03-0.04-0.07-0.09-0.1-0.13
				c-0.02-0.02-0.03-0.04-0.05-0.06c-0.03-0.04-0.07-0.08-0.11-0.12c-0.02-0.02-0.03-0.03-0.05-0.05c-0.05-0.05-0.11-0.11-0.17-0.16
				c-0.04-0.03-0.08-0.07-0.12-0.1c-0.01-0.01-0.03-0.02-0.04-0.03c-0.03-0.02-0.05-0.04-0.08-0.06c-0.02-0.01-0.03-0.02-0.05-0.03
				c-0.03-0.02-0.05-0.03-0.08-0.05c-0.02-0.01-0.04-0.02-0.06-0.03c-0.03-0.01-0.05-0.03-0.08-0.04c-0.02-0.01-0.04-0.02-0.06-0.03
				c-0.02-0.01-0.05-0.03-0.07-0.04c-0.02-0.01-0.04-0.02-0.06-0.03c-0.03-0.01-0.05-0.02-0.08-0.03c-0.02-0.01-0.04-0.02-0.06-0.03
				c-0.03-0.01-0.05-0.02-0.08-0.03c-0.02-0.01-0.04-0.02-0.06-0.02c-0.03-0.01-0.05-0.02-0.08-0.03c-0.02-0.01-0.04-0.01-0.07-0.02
				c-0.03-0.01-0.05-0.02-0.08-0.02c-0.02-0.01-0.04-0.01-0.07-0.02c-0.03-0.01-0.05-0.01-0.08-0.02c-0.02-0.01-0.04-0.01-0.07-0.02
				c-0.03-0.01-0.05-0.01-0.08-0.02c-0.02,0-0.04-0.01-0.07-0.01c-0.03,0-0.06-0.01-0.08-0.01c-0.02,0-0.04-0.01-0.07-0.01
				c-0.03,0-0.06-0.01-0.09-0.01c-0.02,0-0.04,0-0.07-0.01c-0.03,0-0.06,0-0.09-0.01c-0.02,0-0.04,0-0.06,0c-0.03,0-0.07,0-0.1,0
				C24.52,20.52,24.51,20.52,24.49,20.52C24.49,20.52,24.49,20.52,24.49,20.52"/>
		</defs>
		<clipPath id="SVGID_199_">
			<use xlink:href="#SVGID_198_"  style="overflow:visible;"/>
		</clipPath>
		
			<linearGradient id="SVGID_200_" gradientUnits="userSpaceOnUse" x1="-2711.9641" y1="2751.8276" x2="-2711.8882" y2="2751.8276" gradientTransform="matrix(1.9553 60.7949 60.7949 -1.9553 -161971.7188 170278.4063)">
			<stop  offset="0" style="stop-color:#F48F33"/>
			<stop  offset="0.4609" style="stop-color:#F48F35"/>
			<stop  offset="1" style="stop-color:#F08D67"/>
		</linearGradient>
		<polygon class="st89" points="27.94,20.2 28.27,30.58 17.86,30.91 17.52,20.53 		"/>
	</g>
	<path class="st9" d="M17.85,23.71c-0.15,0.02-0.29,0.03-0.44,0.04c-1.05,2.21-0.85,4.83,0.53,6.85c0.05,0,0.1-0.01,0.15-0.01
		C19.51,28.48,19.39,25.69,17.85,23.71"/>
	<path class="st90" d="M17.85,23.71c-0.15,0.02-0.29,0.03-0.44,0.04c-1.05,2.21-0.85,4.83,0.53,6.85c0.05,0,0.1-0.01,0.15-0.01
		C19.51,28.48,19.39,25.69,17.85,23.71"/>
	<path class="st91" d="M13.33,12.98L13.33,12.98c-0.31,0.24-0.6,0.52-0.87,0.83c-0.6,0.71-1.02,1.51-1.24,2.35l0,0
		c-0.02,0.06-0.03,0.13-0.04,0.19c0.04-0.03,0.09-0.06,0.13-0.08l0,0c0.22-0.84,0.63-1.65,1.24-2.35c0.27-0.31,0.56-0.59,0.87-0.83
		l0,0c0.01-0.06,0.02-0.13,0.04-0.2C13.4,12.92,13.36,12.95,13.33,12.98"/>
	<path class="st92" d="M13.23,10.4L13.23,10.4c0.02,0.01,0.04,0.02,0.06,0.03c-0.28-0.91-0.82-1.76-1.59-2.43
		c-0.5-0.43-1.06-0.75-1.64-0.96c-1,0.65-1.92,1.45-2.73,2.4c-0.65,0.76-1.2,1.57-1.64,2.42c0.02-0.02,0.03-0.04,0.05-0.07
		C7.63,9.6,10.76,9.08,13.23,10.4L13.23,10.4z"/>
	<path class="st93" d="M18.81,11.68c-0.16,0.11-0.33,0.21-0.5,0.29c-0.99-0.21-2.02-0.16-2.98,0.13c-0.06-0.02-0.11-0.04-0.16-0.07
		c-0.01,0-0.01-0.01-0.02-0.01c0,0,0.01,0,0.01,0c-0.03-0.03-0.05-0.06-0.08-0.09c-0.23-0.28-0.48-0.54-0.76-0.78
		c-0.29-0.24-0.59-0.46-0.9-0.64c-0.82-1.36-0.72-3.15,0.37-4.43c0.35-0.41,0.77-0.73,1.23-0.95c0,0,0,0,0,0
		c0.68-0.11,1.38-0.16,2.07-0.16c-0.59,1.21-0.32,2.71,0.75,3.62c0.14,0.12,0.28,0.22,0.44,0.31C18.21,9.85,18.39,10.82,18.81,11.68
		z"/>
	<g class="st94">
		<g>
			<defs>
				<rect id="SVGID_201_" x="24.65" y="13.97" width="0.05" height="0.02"/>
			</defs>
			<clipPath id="SVGID_202_">
				<use xlink:href="#SVGID_201_"  style="overflow:visible;"/>
			</clipPath>
			<path class="st95" d="M24.69,13.97c-0.02,0.01-0.03,0.01-0.05,0.02C24.66,13.98,24.68,13.97,24.69,13.97"/>
		</g>
	</g>
	<g class="st94">
		<g>
			<defs>
				<rect id="SVGID_203_" x="26.07" y="12.85" width="0.15" height="0.19"/>
			</defs>
			<clipPath id="SVGID_204_">
				<use xlink:href="#SVGID_203_"  style="overflow:visible;"/>
			</clipPath>
			<path class="st96" d="M26.22,12.85c-0.05,0.06-0.1,0.13-0.15,0.19C26.13,12.98,26.18,12.91,26.22,12.85"/>
		</g>
	</g>
	<g class="st94">
		<g>
			<defs>
				<rect id="SVGID_205_" x="25.42" y="13.59" width="0.03" height="0.02"/>
			</defs>
			<clipPath id="SVGID_206_">
				<use xlink:href="#SVGID_205_"  style="overflow:visible;"/>
			</clipPath>
			<path class="st97" d="M25.45,13.59c-0.01,0.01-0.02,0.01-0.03,0.02C25.43,13.6,25.44,13.6,25.45,13.59"/>
		</g>
	</g>
	<g class="st94">
		<g>
			<defs>
				<rect id="SVGID_207_" x="25.05" y="13.8" width="0.04" height="0.02"/>
			</defs>
			<clipPath id="SVGID_208_">
				<use xlink:href="#SVGID_207_"  style="overflow:visible;"/>
			</clipPath>
			<path class="st98" d="M25.09,13.8c-0.01,0.01-0.03,0.01-0.04,0.02C25.06,13.82,25.08,13.81,25.09,13.8"/>
		</g>
	</g>
	<g class="st94">
		<g>
			<defs>
				<rect id="SVGID_209_" x="25.77" y="13.33" width="0.02" height="0.02"/>
			</defs>
			<clipPath id="SVGID_210_">
				<use xlink:href="#SVGID_209_"  style="overflow:visible;"/>
			</clipPath>
			<path class="st99" d="M25.79,13.33c-0.01,0.01-0.01,0.01-0.02,0.02C25.77,13.34,25.78,13.34,25.79,13.33"/>
		</g>
	</g>
	<g class="st94">
		<g>
			<defs>
				<rect id="SVGID_211_" x="25.91" y="13.18" width="0.04" height="0.04"/>
			</defs>
			<clipPath id="SVGID_212_">
				<use xlink:href="#SVGID_211_"  style="overflow:visible;"/>
			</clipPath>
			<path class="st100" d="M25.94,13.18c-0.01,0.01-0.02,0.02-0.04,0.04C25.92,13.2,25.93,13.19,25.94,13.18"/>
		</g>
	</g>
	<g class="st94">
		<g>
			<defs>
				<rect id="SVGID_213_" x="25.58" y="13.47" width="0.04" height="0.03"/>
			</defs>
			<clipPath id="SVGID_214_">
				<use xlink:href="#SVGID_213_"  style="overflow:visible;"/>
			</clipPath>
			<path class="st101" d="M25.62,13.47c-0.01,0.01-0.03,0.02-0.04,0.03C25.59,13.49,25.61,13.48,25.62,13.47"/>
		</g>
	</g>
	<g class="st94">
		<g>
			<defs>
				<rect id="SVGID_215_" x="25.23" y="13.71" width="0.04" height="0.02"/>
			</defs>
			<clipPath id="SVGID_216_">
				<use xlink:href="#SVGID_215_"  style="overflow:visible;"/>
			</clipPath>
			<path class="st102" d="M25.26,13.71c-0.01,0.01-0.02,0.01-0.04,0.02C25.24,13.72,25.25,13.72,25.26,13.71"/>
		</g>
	</g>
	<g class="st94">
		<g>
			<defs>
				<rect id="SVGID_217_" x="24.85" y="13.9" width="0.03" height="0.01"/>
			</defs>
			<clipPath id="SVGID_218_">
				<use xlink:href="#SVGID_217_"  style="overflow:visible;"/>
			</clipPath>
			<path class="st103" d="M24.88,13.9c-0.01,0-0.02,0.01-0.03,0.01C24.86,13.91,24.87,13.9,24.88,13.9"/>
		</g>
	</g>
	<g class="st94">
		<g>
			<defs>
				<rect id="SVGID_219_" x="24.45" y="14.04" width="0.01" height="0"/>
			</defs>
			<clipPath id="SVGID_220_">
				<use xlink:href="#SVGID_219_"  style="overflow:visible;"/>
			</clipPath>
			<polyline class="st104" points="24.46,14.04 24.45,14.04 24.46,14.04 			"/>
		</g>
	</g>
	<g class="st94">
		<g>
			<defs>
				<rect id="SVGID_221_" x="26.61" y="11.99" width="0.05" height="0.15"/>
			</defs>
			<clipPath id="SVGID_222_">
				<use xlink:href="#SVGID_221_"  style="overflow:visible;"/>
			</clipPath>
			<path class="st105" d="M26.66,11.99c-0.02,0.05-0.03,0.1-0.05,0.15C26.63,12.09,26.65,12.04,26.66,11.99"/>
		</g>
	</g>
	<g class="st94">
		<g>
			<defs>
				<rect id="SVGID_223_" x="26.51" y="12.22" width="0.06" height="0.14"/>
			</defs>
			<clipPath id="SVGID_224_">
				<use xlink:href="#SVGID_223_"  style="overflow:visible;"/>
			</clipPath>
			<path class="st106" d="M26.57,12.22c-0.02,0.05-0.04,0.09-0.06,0.14C26.54,12.32,26.56,12.27,26.57,12.22"/>
		</g>
	</g>
	<g class="st94">
		<g>
			<defs>
				<rect id="SVGID_225_" x="26.69" y="11.69" width="0.06" height="0.23"/>
			</defs>
			<clipPath id="SVGID_226_">
				<use xlink:href="#SVGID_225_"  style="overflow:visible;"/>
			</clipPath>
			<path class="st107" d="M26.75,11.69c-0.02,0.08-0.04,0.15-0.06,0.23C26.71,11.84,26.73,11.77,26.75,11.69"/>
		</g>
	</g>
	<g class="st94">
		<g>
			<defs>
				<rect id="SVGID_227_" x="25.42" y="8.06" width="0.2" height="0.18"/>
			</defs>
			<clipPath id="SVGID_228_">
				<use xlink:href="#SVGID_227_"  style="overflow:visible;"/>
			</clipPath>
			<path class="st108" d="M25.6,8.22c-0.06-0.05-0.12-0.1-0.18-0.16c0.07,0.06,0.14,0.12,0.2,0.18C25.61,8.23,25.6,8.22,25.6,8.22"
				/>
		</g>
	</g>
	<g class="st94">
		<g>
			<defs>
				<rect id="SVGID_229_" x="26.75" y="11.46" width="0.05" height="0.23"/>
			</defs>
			<clipPath id="SVGID_230_">
				<use xlink:href="#SVGID_229_"  style="overflow:visible;"/>
			</clipPath>
			<path class="st109" d="M26.79,11.48c0-0.01,0-0.01,0-0.02c-0.01,0.08-0.03,0.16-0.05,0.23C26.77,11.62,26.78,11.55,26.79,11.48"
				/>
		</g>
	</g>
	<g class="st94">
		<g>
			<defs>
				<rect id="SVGID_231_" x="26.4" y="12.44" width="0.07" height="0.13"/>
			</defs>
			<clipPath id="SVGID_232_">
				<use xlink:href="#SVGID_231_"  style="overflow:visible;"/>
			</clipPath>
			<path class="st110" d="M26.47,12.44c-0.02,0.04-0.05,0.09-0.07,0.13C26.43,12.53,26.45,12.49,26.47,12.44"/>
		</g>
	</g>
	<g class="st94">
		<g>
			<defs>
				<rect id="SVGID_233_" x="26.81" y="11.23" width="0.02" height="0.12"/>
			</defs>
			<clipPath id="SVGID_234_">
				<use xlink:href="#SVGID_233_"  style="overflow:visible;"/>
			</clipPath>
			<path class="st111" d="M26.83,11.23c0,0.04-0.01,0.08-0.01,0.12C26.82,11.31,26.82,11.27,26.83,11.23"/>
		</g>
	</g>
	<g class="st94">
		<g>
			<defs>
				<rect id="SVGID_235_" x="23.33" y="14.18" width="0.05" height="0"/>
			</defs>
			<clipPath id="SVGID_236_">
				<use xlink:href="#SVGID_235_"  style="overflow:visible;"/>
			</clipPath>
			<path class="st112" d="M23.38,14.18c-0.02,0-0.03,0-0.05,0C23.34,14.18,23.36,14.18,23.38,14.18"/>
		</g>
	</g>
	<g class="st94">
		<g>
			<defs>
				<rect id="SVGID_237_" x="24.22" y="14.09" width="0.05" height="0.01"/>
			</defs>
			<clipPath id="SVGID_238_">
				<use xlink:href="#SVGID_237_"  style="overflow:visible;"/>
			</clipPath>
			<path class="st113" d="M24.27,14.09c-0.02,0-0.03,0.01-0.05,0.01C24.24,14.09,24.26,14.09,24.27,14.09"/>
		</g>
	</g>
	<g class="st94">
		<g>
			<defs>
				<rect id="SVGID_239_" x="23.58" y="14.17" width="0.04" height="0"/>
			</defs>
			<clipPath id="SVGID_240_">
				<use xlink:href="#SVGID_239_"  style="overflow:visible;"/>
			</clipPath>
			<path class="st114" d="M23.61,14.17c-0.01,0-0.03,0-0.04,0C23.59,14.18,23.6,14.18,23.61,14.17"/>
		</g>
	</g>
	<g class="st94">
		<g>
			<defs>
				<rect id="SVGID_241_" x="23.78" y="14.16" width="0.05" height="0.01"/>
			</defs>
			<clipPath id="SVGID_242_">
				<use xlink:href="#SVGID_241_"  style="overflow:visible;"/>
			</clipPath>
			<path class="st115" d="M23.83,14.16c-0.02,0-0.03,0-0.05,0C23.8,14.16,23.82,14.16,23.83,14.16"/>
		</g>
	</g>
	<g class="st94">
		<g>
			<defs>
				<rect id="SVGID_243_" x="24.03" y="14.13" width="0.02" height="0"/>
			</defs>
			<clipPath id="SVGID_244_">
				<use xlink:href="#SVGID_243_"  style="overflow:visible;"/>
			</clipPath>
			<path class="st116" d="M24.05,14.13c-0.01,0-0.01,0-0.02,0C24.03,14.13,24.04,14.13,24.05,14.13"/>
		</g>
	</g>
	<g class="st94">
		<g>
			<defs>
				<rect id="SVGID_245_" x="26.27" y="12.65" width="0.09" height="0.13"/>
			</defs>
			<clipPath id="SVGID_246_">
				<use xlink:href="#SVGID_245_"  style="overflow:visible;"/>
			</clipPath>
			<path class="st117" d="M26.36,12.65c-0.03,0.05-0.06,0.09-0.09,0.13C26.3,12.74,26.33,12.7,26.36,12.65"/>
		</g>
	</g>
	<g class="st94">
		<g>
			<defs>
				<rect id="SVGID_247_" x="22.89" y="14.15" width="0.02" height="0"/>
			</defs>
			<clipPath id="SVGID_248_">
				<use xlink:href="#SVGID_247_"  style="overflow:visible;"/>
			</clipPath>
			<path class="st118" d="M22.9,14.15c0,0,0.01,0,0.01,0c-0.01,0-0.02,0-0.02,0C22.89,14.15,22.89,14.15,22.9,14.15"/>
		</g>
	</g>
	<g class="st94">
		<g>
			<defs>
				<rect id="SVGID_249_" x="23.11" y="14.17" width="0.05" height="0"/>
			</defs>
			<clipPath id="SVGID_250_">
				<use xlink:href="#SVGID_249_"  style="overflow:visible;"/>
			</clipPath>
			<path class="st119" d="M23.16,14.17c-0.02,0-0.03,0-0.05,0C23.13,14.17,23.15,14.17,23.16,14.17"/>
		</g>
	</g>
	<path class="st0" d="M20.39,9.27c-0.12,0.63-0.4,1.23-0.84,1.75c-0.22,0.26-0.47,0.48-0.74,0.66c0.09,0.18,0.18,0.35,0.29,0.52
		c0.09,0.03,0.17,0.07,0.26,0.1c0.56,0.23,1.1,0.56,1.59,0.98c0,0,0,0,0.01,0c0.55,0.47,1.21,0.79,1.93,0.87c0.01,0,0.02,0,0.02,0
		c0.07,0.01,0.14,0.01,0.2,0.02c0.02,0,0.03,0,0.05,0c0.06,0,0.11,0,0.17,0.01c0.02,0,0.03,0,0.05,0c0.07,0,0.13,0,0.2,0
		c0.01,0,0.03,0,0.04,0c0.06,0,0.11-0.01,0.17-0.01c0.02,0,0.03,0,0.05,0c0.07-0.01,0.13-0.01,0.2-0.02c0.01,0,0.01,0,0.02,0
		c0.06-0.01,0.12-0.02,0.17-0.03c0.02,0,0.03-0.01,0.05-0.01c0.06-0.01,0.12-0.03,0.18-0.04c0,0,0.01,0,0.01,0
		c0.06-0.02,0.12-0.04,0.18-0.06c0.02-0.01,0.03-0.01,0.05-0.02c0.05-0.02,0.1-0.04,0.15-0.06c0.01,0,0.02-0.01,0.03-0.01
		c0.06-0.02,0.12-0.05,0.17-0.08c0.01-0.01,0.03-0.01,0.04-0.02c0.05-0.02,0.09-0.05,0.14-0.07c0.01-0.01,0.02-0.01,0.04-0.02
		c0.05-0.03,0.11-0.06,0.16-0.1c0.01-0.01,0.02-0.01,0.03-0.02c0.04-0.03,0.09-0.06,0.13-0.09c0.01-0.01,0.03-0.02,0.04-0.03
		c0.05-0.04,0.1-0.08,0.15-0.12c0.01-0.01,0.01-0.01,0.02-0.02c0.04-0.04,0.08-0.08,0.12-0.11c0.01-0.01,0.02-0.02,0.04-0.04
		c0.04-0.05,0.09-0.09,0.13-0.14c0.05-0.06,0.1-0.12,0.15-0.19c0.02-0.02,0.03-0.04,0.04-0.06c0.03-0.04,0.06-0.09,0.09-0.13
		c0.02-0.03,0.03-0.05,0.05-0.08c0.02-0.04,0.05-0.09,0.07-0.13c0.01-0.03,0.03-0.05,0.04-0.08c0.02-0.04,0.04-0.09,0.06-0.14
		c0.01-0.03,0.02-0.05,0.03-0.08c0.02-0.05,0.04-0.1,0.05-0.15c0.01-0.02,0.02-0.05,0.02-0.07c0.02-0.07,0.04-0.15,0.06-0.23
		c0,0,0,0,0,0c0.02-0.08,0.03-0.15,0.05-0.23c0.01-0.04,0.01-0.07,0.01-0.11c0.01-0.04,0.01-0.08,0.01-0.12
		c0.1-1.12-0.36-2.23-1.2-2.99c-0.07-0.06-0.13-0.12-0.2-0.18c-0.8-0.69-1.67-1.26-2.58-1.72c-0.01,0.68-0.25,1.37-0.73,1.93
		C21.65,8.81,21.04,9.14,20.39,9.27L20.39,9.27z"/>
	<path class="st3" d="M20.39,9.27c-0.12,0.63-0.4,1.23-0.84,1.75c-0.22,0.26-0.47,0.48-0.74,0.66c0.09,0.18,0.18,0.35,0.29,0.52
		c0.09,0.03,0.17,0.07,0.26,0.1c0.56,0.23,1.1,0.56,1.59,0.98c0,0,0,0,0.01,0c0.55,0.47,1.21,0.79,1.93,0.87c0.01,0,0.02,0,0.02,0
		c0.07,0.01,0.14,0.01,0.2,0.02c0.02,0,0.03,0,0.05,0c0.06,0,0.11,0,0.17,0.01c0.02,0,0.03,0,0.05,0c0.07,0,0.13,0,0.2,0
		c0.01,0,0.03,0,0.04,0c0.06,0,0.11-0.01,0.17-0.01c0.02,0,0.03,0,0.05,0c0.07-0.01,0.13-0.01,0.2-0.02c0.01,0,0.01,0,0.02,0
		c0.06-0.01,0.12-0.02,0.17-0.03c0.02,0,0.03-0.01,0.05-0.01c0.06-0.01,0.12-0.03,0.18-0.04c0,0,0.01,0,0.01,0
		c0.06-0.02,0.12-0.04,0.18-0.06c0.02-0.01,0.03-0.01,0.05-0.02c0.05-0.02,0.1-0.04,0.15-0.06c0.01,0,0.02-0.01,0.03-0.01
		c0.06-0.02,0.12-0.05,0.17-0.08c0.01-0.01,0.03-0.01,0.04-0.02c0.05-0.02,0.09-0.05,0.14-0.07c0.01-0.01,0.02-0.01,0.04-0.02
		c0.05-0.03,0.11-0.06,0.16-0.1c0.01-0.01,0.02-0.01,0.03-0.02c0.04-0.03,0.09-0.06,0.13-0.09c0.01-0.01,0.03-0.02,0.04-0.03
		c0.05-0.04,0.1-0.08,0.15-0.12c0.01-0.01,0.01-0.01,0.02-0.02c0.04-0.04,0.08-0.08,0.12-0.11c0.01-0.01,0.02-0.02,0.04-0.04
		c0.04-0.05,0.09-0.09,0.13-0.14c0.05-0.06,0.1-0.12,0.15-0.19c0.02-0.02,0.03-0.04,0.04-0.06c0.03-0.04,0.06-0.09,0.09-0.13
		c0.02-0.03,0.03-0.05,0.05-0.08c0.02-0.04,0.05-0.09,0.07-0.13c0.01-0.03,0.03-0.05,0.04-0.08c0.02-0.04,0.04-0.09,0.06-0.14
		c0.01-0.03,0.02-0.05,0.03-0.08c0.02-0.05,0.04-0.1,0.05-0.15c0.01-0.02,0.02-0.05,0.02-0.07c0.02-0.07,0.04-0.15,0.06-0.23
		c0,0,0,0,0,0c0.02-0.08,0.03-0.15,0.05-0.23c0.01-0.04,0.01-0.07,0.01-0.11c0.01-0.04,0.01-0.08,0.01-0.12
		c0.1-1.12-0.36-2.23-1.2-2.99c-0.07-0.06-0.13-0.12-0.2-0.18c-0.8-0.69-1.67-1.26-2.58-1.72c-0.01,0.68-0.25,1.37-0.73,1.93
		C21.65,8.81,21.04,9.14,20.39,9.27L20.39,9.27z"/>
	<path class="st93" d="M20.39,9.27c-0.71,0.14-1.46,0.02-2.11-0.36c-0.08,0.95,0.1,1.91,0.53,2.77c0.27-0.18,0.52-0.4,0.74-0.66
		C19.99,10.5,20.27,9.89,20.39,9.27L20.39,9.27z"/>
	<path class="st120" d="M20.39,9.27c-0.71,0.14-1.46,0.02-2.11-0.36c-0.08,0.95,0.1,1.91,0.53,2.77c0.27-0.18,0.52-0.4,0.74-0.66
		C19.99,10.5,20.27,9.89,20.39,9.27L20.39,9.27z"/>
	<g class="st1">
		<g>
			<defs>
				<rect id="SVGID_251_" x="12.33" y="21.43" width="0.06" height="0.08"/>
			</defs>
			<clipPath id="SVGID_252_">
				<use xlink:href="#SVGID_251_"  style="overflow:visible;"/>
			</clipPath>
			<path class="st121" d="M12.39,21.51C12.39,21.5,12.39,21.5,12.39,21.51c-0.02-0.03-0.04-0.05-0.06-0.08
				C12.35,21.45,12.37,21.48,12.39,21.51C12.39,21.5,12.39,21.5,12.39,21.51"/>
		</g>
	</g>
	<path class="st0" d="M11.18,19.05c-0.21-0.88-0.21-1.8,0-2.69c-0.63,0.42-1.34,0.69-2.08,0.81c0.35,0.2,0.69,0.44,1.01,0.71
		C10.52,18.23,10.87,18.62,11.18,19.05"/>
	<path class="st4" d="M11.18,19.05c-0.21-0.88-0.21-1.8,0-2.69c-0.63,0.42-1.34,0.69-2.08,0.81c0.35,0.2,0.69,0.44,1.01,0.71
		C10.52,18.23,10.87,18.62,11.18,19.05"/>
	<path class="st0" d="M14.2,11.43c-0.29-0.25-0.53-0.53-0.72-0.83l0,0c-0.02-0.03-0.04-0.06-0.05-0.09
		c-0.01-0.01-0.02-0.01-0.03-0.02l0,0c-0.03-0.02-0.07-0.04-0.1-0.06c0.01,0.02,0.02,0.05,0.02,0.07l0,0
		c0.23,0.77,0.27,1.59,0.13,2.39c0.52-0.39,1.1-0.68,1.7-0.87C14.81,11.87,14.49,11.68,14.2,11.43"/>
	<g class="st1">
		<g>
			<defs>
				<rect id="SVGID_253_" x="13.29" y="10.43" width="1.86" height="2.46"/>
			</defs>
			<clipPath id="SVGID_254_">
				<use xlink:href="#SVGID_253_"  style="overflow:visible;"/>
			</clipPath>
			<path class="st122" d="M14.2,11.43c-0.29-0.25-0.53-0.53-0.72-0.83l0,0c-0.02-0.03-0.04-0.06-0.05-0.09
				c-0.01-0.01-0.02-0.01-0.03-0.02l0,0c-0.03-0.02-0.07-0.04-0.1-0.06c0.01,0.02,0.02,0.05,0.02,0.07l0,0
				c0.23,0.77,0.27,1.59,0.13,2.39c0.52-0.39,1.1-0.68,1.7-0.87C14.81,11.87,14.49,11.68,14.2,11.43"/>
		</g>
	</g>
	<path class="st0" d="M12.18,21.24c0.02,0.1,0.05,0.19,0.07,0.29c0.05-0.01,0.09-0.02,0.14-0.02c-0.02-0.03-0.04-0.05-0.06-0.08
		c-0.01-0.01-0.02-0.02-0.02-0.03C12.26,21.34,12.22,21.29,12.18,21.24"/>
	<g class="st1">
		<g>
			<defs>
				<rect id="SVGID_255_" x="12.18" y="21.24" width="0.21" height="0.29"/>
			</defs>
			<clipPath id="SVGID_256_">
				<use xlink:href="#SVGID_255_"  style="overflow:visible;"/>
			</clipPath>
			<path class="st123" d="M12.18,21.24c0.02,0.1,0.05,0.19,0.07,0.29c0.05-0.01,0.09-0.02,0.14-0.02c-0.02-0.03-0.04-0.05-0.06-0.08
				c-0.01-0.01-0.02-0.02-0.02-0.03C12.26,21.34,12.22,21.29,12.18,21.24"/>
		</g>
	</g>
	<path class="st0" d="M5.34,16.32c-0.32,0.03-0.64,0.07-0.96,0.15c-0.02,0.01-0.05,0.01-0.07,0.02c0-0.02-0.01-0.04-0.01-0.07
		c0.01-0.14,0.03-0.28,0.05-0.41c0.02-0.16,0.05-0.31,0.07-0.47c0.14,0.15,0.28,0.29,0.44,0.42C5.02,16.09,5.18,16.21,5.34,16.32"/>
	<path class="st4" d="M5.34,16.32c-0.32,0.03-0.64,0.07-0.96,0.15c-0.02,0.01-0.05,0.01-0.07,0.02c0-0.02-0.01-0.04-0.01-0.07
		c0.01-0.14,0.03-0.28,0.05-0.41c0.02-0.16,0.05-0.31,0.07-0.47c0.14,0.15,0.28,0.29,0.44,0.42C5.02,16.09,5.18,16.21,5.34,16.32"/>
	<path class="st9" d="M12.25,21.53c0,0.01,0,0.02,0,0.03c0.05-0.02,0.09-0.03,0.14-0.05c0,0,0,0,0,0
		C12.34,21.51,12.3,21.52,12.25,21.53"/>
	<path class="st5" d="M12.25,21.53c0,0.01,0,0.02,0,0.03c0.05-0.02,0.09-0.03,0.14-0.05c0,0,0,0,0,0
		C12.34,21.51,12.3,21.52,12.25,21.53"/>
	<path class="st0" d="M12.18,21.24c-0.03-0.04-0.06-0.08-0.09-0.12c-0.44-0.63-0.75-1.33-0.92-2.05c0-0.01,0-0.01,0-0.02
		c-0.3-0.42-0.66-0.82-1.07-1.17c-0.32-0.27-0.65-0.51-1.01-0.71l0,0c-1.28,0.2-2.63-0.07-3.76-0.84c-0.32,0.03-0.64,0.07-0.96,0.15
		c-0.02,0.01-0.05,0.01-0.07,0.02c0.17,1.46,0.87,2.87,2.08,3.9c1.26,1.08,2.83,1.55,4.35,1.45l0,0c0.16-0.01,0.33-0.03,0.49-0.05
		c0.33-0.12,0.67-0.21,1.01-0.26C12.23,21.43,12.21,21.33,12.18,21.24"/>
	<g>
		<g>
			<defs>
				<rect id="SVGID_257_" x="4.32" y="16.32" width="7.93" height="5.53"/>
			</defs>
			<clipPath id="SVGID_258_">
				<use xlink:href="#SVGID_257_"  style="overflow:visible;"/>
			</clipPath>
			<path class="st124" d="M12.18,21.24c-0.03-0.04-0.06-0.08-0.09-0.12c-0.44-0.63-0.75-1.33-0.92-2.05c0-0.01,0-0.01,0-0.02
				c-0.3-0.42-0.66-0.82-1.07-1.17c-0.32-0.27-0.65-0.51-1.01-0.71l0,0c-1.28,0.2-2.63-0.07-3.76-0.84
				c-0.32,0.03-0.64,0.07-0.96,0.15c-0.02,0.01-0.05,0.01-0.07,0.02c0.17,1.46,0.87,2.87,2.08,3.9c1.26,1.08,2.83,1.55,4.35,1.45
				l0,0c0.16-0.01,0.33-0.03,0.49-0.05c0.33-0.12,0.67-0.21,1.01-0.26C12.23,21.43,12.21,21.33,12.18,21.24"/>
		</g>
	</g>
	<path class="st7" d="M12.18,21.24c-0.03-0.04-0.06-0.08-0.09-0.12c-0.44-0.63-0.75-1.33-0.92-2.05c0-0.01,0-0.01,0-0.02
		c-0.3-0.42-0.66-0.82-1.07-1.17c-0.32-0.27-0.65-0.51-1.01-0.71l0,0c-1.28,0.2-2.63-0.07-3.76-0.84c-0.32,0.03-0.64,0.07-0.96,0.15
		c-0.02,0.01-0.05,0.01-0.07,0.02c0.17,1.46,0.87,2.87,2.08,3.9c1.26,1.08,2.83,1.55,4.35,1.45l0,0c0.16-0.01,0.33-0.03,0.49-0.05
		c0.33-0.12,0.67-0.21,1.01-0.26C12.23,21.43,12.21,21.33,12.18,21.24"/>
	<path class="st9" d="M11.24,21.79c0.32-0.05,0.64-0.12,0.95-0.22c0.02-0.01,0.04-0.01,0.06-0.02c0-0.01,0-0.02,0-0.03
		C11.91,21.58,11.57,21.67,11.24,21.79"/>
	<path class="st10" d="M11.24,21.79c0.32-0.05,0.64-0.12,0.95-0.22c0.02-0.01,0.04-0.01,0.06-0.02c0-0.01,0-0.02,0-0.03
		C11.91,21.58,11.57,21.67,11.24,21.79"/>
	<path class="st125" d="M11.17,16.36c-0.63,0.42-1.34,0.69-2.07,0.81l0,0c-1.16-0.67-2.47-0.94-3.76-0.84
		c-0.16-0.11-0.32-0.23-0.47-0.36c-0.16-0.13-0.3-0.28-0.44-0.42c0.19-1.04,0.5-2.06,0.94-3.04c0.1-0.21,0.2-0.42,0.31-0.63
		c0.02-0.02,0.04-0.05,0.05-0.07c1.89-2.21,5.03-2.73,7.49-1.41l0,0c0.02,0.01,0.04,0.02,0.06,0.03c0.01,0.02,0.01,0.05,0.02,0.07
		l0,0c0.23,0.77,0.27,1.59,0.13,2.39c-0.04,0.03-0.08,0.06-0.12,0.09l0,0c-0.31,0.24-0.6,0.52-0.87,0.83
		c-0.6,0.71-1.02,1.51-1.24,2.35l0,0C11.2,16.23,11.19,16.29,11.17,16.36"/>
	<path class="st91" d="M11.17,16.36c-0.63,0.42-1.34,0.69-2.07,0.81l0,0c-1.16-0.67-2.47-0.94-3.76-0.84
		c-0.16-0.11-0.32-0.23-0.47-0.36c-0.16-0.13-0.3-0.28-0.44-0.42c0.19-1.04,0.5-2.06,0.94-3.04c0.1-0.21,0.2-0.42,0.31-0.63
		c0.02-0.02,0.04-0.05,0.05-0.07c1.89-2.21,5.03-2.73,7.49-1.41l0,0c0.02,0.01,0.04,0.02,0.06,0.03c0.01,0.02,0.01,0.05,0.02,0.07
		l0,0c0.23,0.77,0.27,1.59,0.13,2.39c-0.04,0.03-0.08,0.06-0.12,0.09l0,0c-0.31,0.24-0.6,0.52-0.87,0.83
		c-0.6,0.71-1.02,1.51-1.24,2.35l0,0C11.2,16.23,11.19,16.29,11.17,16.36"/>
	<path class="st125" d="M9.1,17.16c-1.16-0.67-2.47-0.94-3.76-0.84C6.47,17.09,7.82,17.36,9.1,17.16"/>
	<g class="st1">
		<g>
			<defs>
				<rect id="SVGID_259_" x="5.34" y="16.3" width="3.76" height="0.92"/>
			</defs>
			<clipPath id="SVGID_260_">
				<use xlink:href="#SVGID_259_"  style="overflow:visible;"/>
			</clipPath>
			<path class="st126" d="M9.1,17.16c-1.16-0.67-2.47-0.94-3.76-0.84C6.47,17.09,7.82,17.36,9.1,17.16"/>
		</g>
	</g>
	<path class="st93" d="M13.48,10.6c0.19,0.3,0.44,0.58,0.72,0.83c0.29,0.25,0.61,0.45,0.94,0.59c0,0,0.01,0,0.01,0
		c-0.02-0.03-0.05-0.06-0.08-0.09c-0.23-0.28-0.48-0.54-0.76-0.78c-0.29-0.24-0.59-0.46-0.9-0.64
		C13.44,10.54,13.46,10.57,13.48,10.6L13.48,10.6z"/>
	<path class="st127" d="M13.48,10.6c0.19,0.3,0.44,0.58,0.72,0.83c0.29,0.25,0.61,0.45,0.94,0.59c0,0,0.01,0,0.01,0
		c-0.02-0.03-0.05-0.06-0.08-0.09c-0.23-0.28-0.48-0.54-0.76-0.78c-0.29-0.24-0.59-0.46-0.9-0.64
		C13.44,10.54,13.46,10.57,13.48,10.6L13.48,10.6z"/>
	<path class="st0" d="M19.46,5.98c0.03-0.03,0.05-0.06,0.08-0.09c0.17-0.2,0.36-0.39,0.55-0.56C19.41,5.16,18.72,5.06,18.02,5
		c0.4,0.15,0.78,0.37,1.12,0.67C19.25,5.77,19.36,5.87,19.46,5.98L19.46,5.98z"/>
	<path class="st128" d="M19.46,5.98c0.03-0.03,0.05-0.06,0.08-0.09c0.17-0.2,0.36-0.39,0.55-0.56C19.41,5.16,18.72,5.06,18.02,5
		c0.4,0.15,0.78,0.37,1.12,0.67C19.25,5.77,19.36,5.87,19.46,5.98L19.46,5.98z"/>
	<path class="st93" d="M19.46,5.98c-0.71,0.86-1.1,1.88-1.18,2.92c-0.15-0.09-0.3-0.19-0.44-0.31c-1.07-0.92-1.34-2.42-0.75-3.62
		c0.31,0,0.62,0.01,0.92,0.03h0c0.4,0.15,0.78,0.37,1.12,0.67C19.25,5.77,19.36,5.87,19.46,5.98z"/>
	<path class="st129" d="M19.46,5.98c-0.71,0.86-1.1,1.88-1.18,2.92c-0.15-0.09-0.3-0.19-0.44-0.31c-1.07-0.92-1.34-2.42-0.75-3.62
		c0.31,0,0.62,0.01,0.92,0.03h0c0.4,0.15,0.78,0.37,1.12,0.67C19.25,5.77,19.36,5.87,19.46,5.98z"/>
	<path class="st0" d="M19.46,5.98c0.83,0.9,1.15,2.13,0.93,3.28c0.65-0.12,1.26-0.46,1.72-1c0.48-0.56,0.72-1.24,0.73-1.93
		c-0.6-0.3-1.21-0.55-1.84-0.76c-0.3-0.1-0.6-0.18-0.91-0.26c-0.2,0.17-0.38,0.36-0.55,0.56C19.51,5.92,19.49,5.95,19.46,5.98
		L19.46,5.98z"/>
	<g class="st94">
		<g>
			<defs>
				<rect id="SVGID_261_" x="19.46" y="5.33" width="3.38" height="3.94"/>
			</defs>
			<clipPath id="SVGID_262_">
				<use xlink:href="#SVGID_261_"  style="overflow:visible;"/>
			</clipPath>
			<path class="st130" d="M19.46,5.98c0.83,0.9,1.15,2.13,0.93,3.28c0.65-0.12,1.26-0.46,1.72-1c0.48-0.56,0.72-1.24,0.73-1.93
				c-0.6-0.3-1.21-0.55-1.84-0.76c-0.3-0.1-0.6-0.18-0.91-0.26c-0.2,0.17-0.38,0.36-0.55,0.56C19.51,5.92,19.49,5.95,19.46,5.98"/>
		</g>
	</g>
	<path class="st131" d="M19.46,5.98c0.83,0.9,1.15,2.13,0.93,3.28c0.65-0.12,1.26-0.46,1.72-1c0.48-0.56,0.72-1.24,0.73-1.93
		c-0.6-0.3-1.21-0.55-1.84-0.76c-0.3-0.1-0.6-0.18-0.91-0.26c-0.2,0.17-0.38,0.36-0.55,0.56C19.51,5.92,19.49,5.95,19.46,5.98
		L19.46,5.98z"/>
	<path class="st93" d="M20.39,9.27c0.22-1.15-0.1-2.38-0.93-3.28c-0.71,0.86-1.1,1.88-1.18,2.92C18.93,9.29,19.68,9.41,20.39,9.27
		L20.39,9.27z"/>
	<g class="st94">
		<g>
			<defs>
				<rect id="SVGID_263_" x="18.28" y="5.98" width="2.18" height="3.34"/>
			</defs>
			<clipPath id="SVGID_264_">
				<use xlink:href="#SVGID_263_"  style="overflow:visible;"/>
			</clipPath>
			<path class="st132" d="M20.39,9.27c0.22-1.15-0.1-2.38-0.93-3.28c-0.71,0.86-1.1,1.88-1.18,2.92
				C18.93,9.29,19.68,9.41,20.39,9.27"/>
		</g>
	</g>
	<path class="st133" d="M20.39,9.27c0.22-1.15-0.1-2.38-0.93-3.28c-0.71,0.86-1.1,1.88-1.18,2.92C18.93,9.29,19.68,9.41,20.39,9.27
		L20.39,9.27z"/>
	<path class="st3" d="M6.77,8.83C6.35,9.32,5.62,9.38,5.14,8.96C4.65,8.54,4.59,7.81,5.01,7.33C5.43,6.84,6.16,6.78,6.65,7.2
		C7.13,7.62,7.19,8.35,6.77,8.83"/>
	<path class="st134" d="M12.42,4.51c-0.28,0.32-0.76,0.36-1.08,0.08c-0.32-0.28-0.36-0.76-0.08-1.08c0.28-0.32,0.76-0.36,1.08-0.08
		C12.66,3.7,12.7,4.19,12.42,4.51L12.42,4.51z"/>
	<path class="st135" d="M8.59,5.35C7.73,6.36,6.21,6.47,5.2,5.61c-1.01-0.87-1.13-2.39-0.26-3.4C5.8,1.2,7.32,1.08,8.33,1.95
		C9.34,2.81,9.46,4.34,8.59,5.35"/>
</g>
</svg>
